<?xml version="1.0" encoding="UTF-8" standalone="no"?>
<!DOCTYPE svg PUBLIC "-//W3C//DTD SVG 1.1//EN"
 "http://www.w3.org/Graphics/SVG/1.1/DTD/svg11.dtd">
<!-- Generated by graphviz version 7.0.5 (20221223.1930)
 -->
<!-- Title: Server_Side_API_driven_Web_Applications Pages: 1 -->
<svg width="251pt" height="556pt"
 viewBox="0.00 0.00 251.00 556.40" xmlns="http://www.w3.org/2000/svg" xmlns:xlink="http://www.w3.org/1999/xlink">
<g id="page0,1_graph0" class="graph" transform="scale(1 1) rotate(0) translate(4 552.4)">
<title>Server_Side_API_driven_Web_Applications</title>
<polygon fill="white" stroke="none" points="-4,4 -4,-552.4 247,-552.4 247,4 -4,4"/>
<text text-anchor="middle" x="121.5" y="-7.8" font-family="Times,serif" font-size="14.00">Server Side API driven Web Applications</text>
<g id="clust1" class="cluster">
<title>cluster_browser</title>
<polygon fill="none" stroke="black" points="36,-385.4 36,-540.4 196,-540.4 196,-385.4 36,-385.4"/>
<text text-anchor="middle" x="116" y="-525.2" font-family="Times,serif" font-size="14.00">Browser</text>
</g>
<g id="clust2" class="cluster">
<title>cluster_web_server</title>
<polygon fill="none" stroke="black" points="97,-139.6 97,-377.4 207,-377.4 207,-139.6 97,-139.6"/>
<text text-anchor="middle" x="152" y="-362.2" font-family="Times,serif" font-size="14.00">Web Server</text>
</g>
<g id="clust3" class="cluster">
<title>cluster_models</title>
<polygon fill="none" stroke="black" stroke-dasharray="1,5" points="105,-147.6 105,-190.2 169,-190.2 169,-147.6 105,-147.6"/>
<text text-anchor="middle" x="137" y="-175" font-family="Times,serif" font-size="14.00">Models</text>
</g>
<g id="clust4" class="cluster">
<title>cluster_views</title>
<polygon fill="none" stroke="black" stroke-dasharray="1,5" points="105,-198.2 105,-295.2 199,-295.2 199,-198.2 105,-198.2"/>
<text text-anchor="middle" x="152" y="-280" font-family="Times,serif" font-size="14.00">Views</text>
</g>
<g id="clust5" class="cluster">
<title>cluster_api</title>
<polygon fill="none" stroke="black" points="105,-89 105,-131.6 169,-131.6 169,-89 105,-89"/>
<text text-anchor="middle" x="137" y="-116.4" font-family="Times,serif" font-size="14.00">API</text>
</g>
<g id="clust6" class="cluster">
<title>cluster_db</title>
<polygon fill="none" stroke="black" points="90,-31 90,-81 184,-81 184,-31 90,-31"/>
<text text-anchor="middle" x="137" y="-65.8" font-family="Times,serif" font-size="14.00">Database</text>
</g>
<!-- render -->
<g id="node1" class="node">
<title>render</title>
<polygon fill="none" stroke="black" points="151.77,-479.94 151.77,-494.86 130.82,-505.4 101.18,-505.4 80.23,-494.86 80.23,-479.94 101.18,-469.4 130.82,-469.4 151.77,-479.94"/>
<polygon fill="none" stroke="black" points="155.76,-477.48 155.76,-497.32 131.76,-509.4 100.24,-509.4 76.24,-497.32 76.24,-477.48 100.24,-465.4 131.76,-465.4 155.76,-477.48"/>
<text text-anchor="middle" x="116" y="-483.7" font-family="Times,serif" font-size="14.00">render</text>
</g>
<!-- css_request -->
<g id="node2" class="node">
<title>css_request</title>
<ellipse fill="none" stroke="black" stroke-dasharray="1,5" cx="71" cy="-411.4" rx="27" ry="18"/>
<text text-anchor="middle" x="71" y="-407.7" font-family="Times,serif" font-size="14.00">CSS</text>
</g>
<!-- render&#45;&gt;css_request -->
<g id="edge2" class="edge">
<title>render&#45;&gt;css_request</title>
<path fill="none" stroke="gray" stroke-dasharray="1,5" d="M102.98,-465C95.92,-453.39 87.34,-439.27 80.84,-428.58"/>
</g>
<!-- html_request -->
<g id="node3" class="node">
<title>html_request</title>
<ellipse fill="none" stroke="black" cx="152" cy="-411.4" rx="36.29" ry="18"/>
<text text-anchor="middle" x="152" y="-407.7" font-family="Times,serif" font-size="14.00">HTML</text>
</g>
<!-- render&#45;&gt;html_request -->
<g id="edge1" class="edge">
<title>render&#45;&gt;html_request</title>
<path fill="none" stroke="#104e8b" d="M126.41,-465C130.33,-456.95 134.82,-447.71 138.95,-439.23"/>
<polygon fill="#104e8b" stroke="#104e8b" points="142.01,-440.94 143.23,-430.42 135.71,-437.88 142.01,-440.94"/>
</g>
<!-- router -->
<g id="node4" class="node">
<title>router</title>
<ellipse fill="black" stroke="black" cx="152" cy="-344.6" rx="1.8" ry="1.8"/>
</g>
<!-- html_request&#45;&gt;router -->
<g id="edge3" class="edge">
<title>html_request&#45;&gt;router</title>
<path fill="none" stroke="#104e8b" d="M152,-393.03C152,-382.01 152,-368.01 152,-358.08"/>
<polygon fill="#104e8b" stroke="#104e8b" points="155.5,-358.36 152,-348.36 148.5,-358.36 155.5,-358.36"/>
</g>
<!-- controller -->
<g id="node5" class="node">
<title>controller</title>
<ellipse fill="black" stroke="black" cx="152" cy="-305" rx="1.8" ry="1.8"/>
</g>
<!-- router&#45;&gt;controller -->
<g id="edge4" class="edge">
<title>router&#45;&gt;controller</title>
<path fill="none" stroke="#104e8b" d="M152,-342.35C152,-338.69 152,-327.71 152,-318.77"/>
<polygon fill="#104e8b" stroke="#104e8b" points="155.5,-318.81 152,-308.81 148.5,-318.81 155.5,-318.81"/>
</g>
<!-- view -->
<g id="node9" class="node">
<title>view</title>
<polygon fill="none" stroke="black" points="159,-264.2 145,-264.2 145,-262.98 143.78,-262.98 143.78,-261.76 145,-261.76 145,-255.64 143.78,-255.64 143.78,-254.42 145,-254.42 145,-253.2 159,-253.2 159,-264.2"/>
<polyline fill="none" stroke="black" points="145,-262.98 146.22,-262.98 146.22,-261.76 145,-261.76"/>
<polyline fill="none" stroke="black" points="145,-255.64 146.22,-255.64 146.22,-254.42 145,-254.42"/>
</g>
<!-- controller&#45;&gt;view -->
<g id="edge5" class="edge">
<title>controller&#45;&gt;view</title>
<path fill="none" stroke="#104e8b" d="M152,-302.9C152,-299.15 152,-286.46 152,-275.8"/>
<polygon fill="#104e8b" stroke="#104e8b" points="155.5,-276.05 152,-266.05 148.5,-276.05 155.5,-276.05"/>
</g>
<!-- user_model -->
<g id="node6" class="node">
<title>user_model</title>
<ellipse fill="black" stroke="black" cx="159" cy="-157.4" rx="1.8" ry="1.8"/>
</g>
<!-- user_api -->
<g id="node13" class="node">
<title>user_api</title>
<ellipse fill="black" stroke="black" cx="159" cy="-98.8" rx="1.8" ry="1.8"/>
</g>
<!-- user_model&#45;&gt;user_api -->
<g id="edge9" class="edge">
<title>user_model&#45;&gt;user_api</title>
<path fill="none" stroke="#6e8b3d" d="M159,-155.42C159,-150.2 159,-125.45 159,-110.78"/>
<polygon fill="#6e8b3d" stroke="#6e8b3d" points="159,-101 163.5,-111 159,-106 159,-111 159,-111 159,-111 159,-106 154.5,-111 159,-101 159,-101"/>
</g>
<!-- catalog_model -->
<g id="node7" class="node">
<title>catalog_model</title>
<ellipse fill="black" stroke="black" cx="137" cy="-157.4" rx="1.8" ry="1.8"/>
</g>
<!-- catalog_api -->
<g id="node14" class="node">
<title>catalog_api</title>
<ellipse fill="black" stroke="black" cx="137" cy="-98.8" rx="1.8" ry="1.8"/>
</g>
<!-- catalog_model&#45;&gt;catalog_api -->
<g id="edge10" class="edge">
<title>catalog_model&#45;&gt;catalog_api</title>
<path fill="none" stroke="#6e8b3d" d="M137,-155.42C137,-150.2 137,-125.45 137,-110.78"/>
<polygon fill="#6e8b3d" stroke="#6e8b3d" points="137,-101 141.5,-111 137,-106 137,-111 137,-111 137,-111 137,-106 132.5,-111 137,-101 137,-101"/>
</g>
<!-- inventory_model -->
<g id="node8" class="node">
<title>inventory_model</title>
<ellipse fill="black" stroke="black" cx="115" cy="-157.4" rx="1.8" ry="1.8"/>
</g>
<!-- inventory_api -->
<g id="node15" class="node">
<title>inventory_api</title>
<ellipse fill="black" stroke="black" cx="115" cy="-98.8" rx="1.8" ry="1.8"/>
</g>
<!-- inventory_model&#45;&gt;inventory_api -->
<g id="edge11" class="edge">
<title>inventory_model&#45;&gt;inventory_api</title>
<path fill="none" stroke="#6e8b3d" d="M115,-155.42C115,-150.2 115,-125.45 115,-110.78"/>
<polygon fill="#6e8b3d" stroke="#6e8b3d" points="115,-101 119.5,-111 115,-106 115,-111 115,-111 115,-111 115,-106 110.5,-111 115,-101 115,-101"/>
</g>
<!-- header -->
<g id="node10" class="node">
<title>header</title>
<polygon fill="none" stroke="black" points="159,-217.2 145,-217.2 145,-215.98 143.78,-215.98 143.78,-214.76 145,-214.76 145,-208.64 143.78,-208.64 143.78,-207.42 145,-207.42 145,-206.2 159,-206.2 159,-217.2"/>
<polyline fill="none" stroke="black" points="145,-215.98 146.22,-215.98 146.22,-214.76 145,-214.76"/>
<polyline fill="none" stroke="black" points="145,-208.64 146.22,-208.64 146.22,-207.42 145,-207.42"/>
</g>
<!-- view&#45;&gt;header -->
<g id="edge15" class="edge">
<title>view&#45;&gt;header</title>
<path fill="none" stroke="#104e8b" d="M152,-252.88C152,-247.23 152,-237.55 152,-229.11"/>
<polygon fill="#104e8b" stroke="#104e8b" points="155.5,-229.13 152,-219.13 148.5,-229.13 155.5,-229.13"/>
</g>
<!-- main -->
<g id="node11" class="node">
<title>main</title>
<polygon fill="none" stroke="black" points="127,-217.2 113,-217.2 113,-215.98 111.78,-215.98 111.78,-214.76 113,-214.76 113,-208.64 111.78,-208.64 111.78,-207.42 113,-207.42 113,-206.2 127,-206.2 127,-217.2"/>
<polyline fill="none" stroke="black" points="113,-215.98 114.22,-215.98 114.22,-214.76 113,-214.76"/>
<polyline fill="none" stroke="black" points="113,-208.64 114.22,-208.64 114.22,-207.42 113,-207.42"/>
</g>
<!-- view&#45;&gt;main -->
<g id="edge16" class="edge">
<title>view&#45;&gt;main</title>
<path fill="none" stroke="#104e8b" d="M148.58,-252.88C144.17,-246.69 136.33,-235.67 129.98,-226.74"/>
<polygon fill="#104e8b" stroke="#104e8b" points="133.02,-224.97 124.37,-218.85 127.32,-229.03 133.02,-224.97"/>
</g>
<!-- footer -->
<g id="node12" class="node">
<title>footer</title>
<polygon fill="none" stroke="black" points="191,-217.2 177,-217.2 177,-215.98 175.78,-215.98 175.78,-214.76 177,-214.76 177,-208.64 175.78,-208.64 175.78,-207.42 177,-207.42 177,-206.2 191,-206.2 191,-217.2"/>
<polyline fill="none" stroke="black" points="177,-215.98 178.22,-215.98 178.22,-214.76 177,-214.76"/>
<polyline fill="none" stroke="black" points="177,-208.64 178.22,-208.64 178.22,-207.42 177,-207.42"/>
</g>
<!-- view&#45;&gt;footer -->
<g id="edge17" class="edge">
<title>view&#45;&gt;footer</title>
<path fill="none" stroke="#104e8b" d="M155.42,-252.88C159.83,-246.69 167.67,-235.67 174.02,-226.74"/>
<polygon fill="#104e8b" stroke="#104e8b" points="176.68,-229.03 179.63,-218.85 170.98,-224.97 176.68,-229.03"/>
</g>
<!-- header&#45;&gt;user_model -->
<g id="edge6" class="edge">
<title>header&#45;&gt;user_model</title>
<path fill="none" stroke="#104e8b" d="M152.65,-205.87C153.71,-197.9 155.88,-181.74 157.38,-170.5"/>
<polygon fill="#104e8b" stroke="#104e8b" points="160.83,-171.14 158.68,-160.76 153.89,-170.21 160.83,-171.14"/>
</g>
<!-- main&#45;&gt;catalog_model -->
<g id="edge7" class="edge">
<title>main&#45;&gt;catalog_model</title>
<path fill="none" stroke="#104e8b" d="M121.57,-205.87C124.19,-197.81 129.54,-181.36 133.19,-170.11"/>
<polygon fill="#104e8b" stroke="#104e8b" points="136.49,-171.3 136.25,-160.7 129.83,-169.13 136.49,-171.3"/>
</g>
<!-- main&#45;&gt;inventory_model -->
<g id="edge8" class="edge">
<title>main&#45;&gt;inventory_model</title>
<path fill="none" stroke="#104e8b" d="M119.54,-205.87C118.78,-197.9 117.23,-181.74 116.16,-170.5"/>
<polygon fill="#104e8b" stroke="#104e8b" points="119.66,-170.39 115.23,-160.77 112.69,-171.06 119.66,-170.39"/>
</g>
<!-- user_db -->
<g id="node16" class="node">
<title>user_db</title>
<path fill="none" stroke="black" d="M176,-49C176,-49.55 172.86,-50 169,-50 165.14,-50 162,-49.55 162,-49 162,-49 162,-40 162,-40 162,-39.45 165.14,-39 169,-39 172.86,-39 176,-39.45 176,-40 176,-40 176,-49 176,-49"/>
<path fill="none" stroke="black" d="M176,-49C176,-48.45 172.86,-48 169,-48 165.14,-48 162,-48.45 162,-49"/>
</g>
<!-- user_api&#45;&gt;user_db -->
<g id="edge12" class="edge">
<title>user_api&#45;&gt;user_db</title>
<path fill="none" stroke="black" d="M159.17,-96.89C159.99,-92.61 163.53,-74.09 166.13,-60.5"/>
<polygon fill="black" stroke="black" points="171.42,-51.46 166.11,-60.63 164.55,-50.15 171.42,-51.46"/>
</g>
<!-- catalog_db -->
<g id="node17" class="node">
<title>catalog_db</title>
<path fill="none" stroke="black" d="M144,-49C144,-49.55 140.86,-50 137,-50 133.14,-50 130,-49.55 130,-49 130,-49 130,-40 130,-40 130,-39.45 133.14,-39 137,-39 140.86,-39 144,-39.45 144,-40 144,-40 144,-49 144,-49"/>
<path fill="none" stroke="black" d="M144,-49C144,-48.45 140.86,-48 137,-48 133.14,-48 130,-48.45 130,-49"/>
</g>
<!-- catalog_api&#45;&gt;catalog_db -->
<g id="edge13" class="edge">
<title>catalog_api&#45;&gt;catalog_db</title>
<path fill="none" stroke="black" d="M137,-96.51C137,-91.36 137,-71.94 137,-58.61"/>
<polygon fill="black" stroke="black" points="140.5,-48.85 137,-58.85 133.5,-48.85 140.5,-48.85"/>
</g>
<!-- inventory_db -->
<g id="node18" class="node">
<title>inventory_db</title>
<path fill="none" stroke="black" d="M112,-49C112,-49.55 108.86,-50 105,-50 101.14,-50 98,-49.55 98,-49 98,-49 98,-40 98,-40 98,-39.45 101.14,-39 105,-39 108.86,-39 112,-39.45 112,-40 112,-40 112,-49 112,-49"/>
<path fill="none" stroke="black" d="M112,-49C112,-48.45 108.86,-48 105,-48 101.14,-48 98,-48.45 98,-49"/>
</g>
<!-- inventory_api&#45;&gt;inventory_db -->
<g id="edge14" class="edge">
<title>inventory_api&#45;&gt;inventory_db</title>
<path fill="none" stroke="black" d="M114.83,-96.89C114.01,-92.61 110.47,-74.09 107.87,-60.5"/>
<polygon fill="black" stroke="black" points="109.45,-50.15 107.89,-60.63 102.58,-51.46 109.45,-50.15"/>
</g>
</g>
</svg>
