<?xml version="1.0" encoding="UTF-8" standalone="no"?>
<!DOCTYPE svg PUBLIC "-//W3C//DTD SVG 1.1//EN"
 "http://www.w3.org/Graphics/SVG/1.1/DTD/svg11.dtd">
<!-- Generated by graphviz version 7.0.1 (20221109.1506)
 -->
<!-- Title: Server_Side_API_driven_Web_Applications Pages: 1 -->
<svg width="250pt" height="556pt"
 viewBox="0.00 0.00 250.00 556.40" xmlns="http://www.w3.org/2000/svg" xmlns:xlink="http://www.w3.org/1999/xlink">
<g id="page0,1_graph0" class="graph" transform="scale(1 1) rotate(0) translate(4 552.4)">
<title>Server_Side_API_driven_Web_Applications</title>
<polygon fill="white" stroke="none" points="-4,4 -4,-552.4 246,-552.4 246,4 -4,4"/>
<text text-anchor="middle" x="121" y="-7.8" font-family="Times,serif" font-size="14.00">Server Side API driven Web Applications</text>
<g id="clust1" class="cluster">
<title>cluster_browser</title>
<polygon fill="none" stroke="black" points="35.5,-385.4 35.5,-540.4 195.5,-540.4 195.5,-385.4 35.5,-385.4"/>
<text text-anchor="middle" x="115.5" y="-525.2" font-family="Times,serif" font-size="14.00">Browser</text>
</g>
<g id="clust2" class="cluster">
<title>cluster_web_server</title>
<polygon fill="none" stroke="black" points="96.5,-139.6 96.5,-377.4 206.5,-377.4 206.5,-139.6 96.5,-139.6"/>
<text text-anchor="middle" x="151.5" y="-362.2" font-family="Times,serif" font-size="14.00">Web Server</text>
</g>
<g id="clust3" class="cluster">
<title>cluster_models</title>
<polygon fill="none" stroke="black" stroke-dasharray="1,5" points="104.5,-147.6 104.5,-190.2 168.5,-190.2 168.5,-147.6 104.5,-147.6"/>
<text text-anchor="middle" x="136.5" y="-175" font-family="Times,serif" font-size="14.00">Models</text>
</g>
<g id="clust4" class="cluster">
<title>cluster_views</title>
<polygon fill="none" stroke="black" stroke-dasharray="1,5" points="104.5,-198.2 104.5,-295.2 198.5,-295.2 198.5,-198.2 104.5,-198.2"/>
<text text-anchor="middle" x="151.5" y="-280" font-family="Times,serif" font-size="14.00">Views</text>
</g>
<g id="clust5" class="cluster">
<title>cluster_api</title>
<polygon fill="none" stroke="black" points="104.5,-89 104.5,-131.6 168.5,-131.6 168.5,-89 104.5,-89"/>
<text text-anchor="middle" x="136.5" y="-116.4" font-family="Times,serif" font-size="14.00">API</text>
</g>
<g id="clust6" class="cluster">
<title>cluster_db</title>
<polygon fill="none" stroke="black" points="89.5,-31 89.5,-81 183.5,-81 183.5,-31 89.5,-31"/>
<text text-anchor="middle" x="136.5" y="-65.8" font-family="Times,serif" font-size="14.00">Database</text>
</g>
<!-- render -->
<g id="node1" class="node">
<title>render</title>
<polygon fill="none" stroke="black" points="151.27,-479.94 151.27,-494.86 130.32,-505.4 100.68,-505.4 79.73,-494.86 79.73,-479.94 100.68,-469.4 130.32,-469.4 151.27,-479.94"/>
<polygon fill="none" stroke="black" points="155.26,-477.48 155.26,-497.32 131.26,-509.4 99.74,-509.4 75.74,-497.32 75.74,-477.48 99.74,-465.4 131.26,-465.4 155.26,-477.48"/>
<text text-anchor="middle" x="115.5" y="-483.7" font-family="Times,serif" font-size="14.00">render</text>
</g>
<!-- css_request -->
<g id="node2" class="node">
<title>css_request</title>
<ellipse fill="none" stroke="black" stroke-dasharray="1,5" cx="70.5" cy="-411.4" rx="27" ry="18"/>
<text text-anchor="middle" x="70.5" y="-407.7" font-family="Times,serif" font-size="14.00">CSS</text>
</g>
<!-- render&#45;&gt;css_request -->
<g id="edge2" class="edge">
<title>render&#45;&gt;css_request</title>
<path fill="none" stroke="gray" stroke-dasharray="1,5" d="M102.48,-465C95.42,-453.39 86.84,-439.27 80.34,-428.58"/>
</g>
<!-- html_request -->
<g id="node3" class="node">
<title>html_request</title>
<ellipse fill="none" stroke="black" cx="151.5" cy="-411.4" rx="36.29" ry="18"/>
<text text-anchor="middle" x="151.5" y="-407.7" font-family="Times,serif" font-size="14.00">HTML</text>
</g>
<!-- render&#45;&gt;html_request -->
<g id="edge1" class="edge">
<title>render&#45;&gt;html_request</title>
<path fill="none" stroke="#104e8b" d="M125.91,-465C129.83,-456.95 134.32,-447.71 138.45,-439.23"/>
<polygon fill="#104e8b" stroke="#104e8b" points="141.51,-440.94 142.73,-430.42 135.21,-437.88 141.51,-440.94"/>
</g>
<!-- router -->
<g id="node4" class="node">
<title>router</title>
<ellipse fill="black" stroke="black" cx="151.5" cy="-344.6" rx="1.8" ry="1.8"/>
</g>
<!-- html_request&#45;&gt;router -->
<g id="edge3" class="edge">
<title>html_request&#45;&gt;router</title>
<path fill="none" stroke="#104e8b" d="M151.5,-393.03C151.5,-382.01 151.5,-368.01 151.5,-358.08"/>
<polygon fill="#104e8b" stroke="#104e8b" points="155,-358.36 151.5,-348.36 148,-358.36 155,-358.36"/>
</g>
<!-- controller -->
<g id="node5" class="node">
<title>controller</title>
<ellipse fill="black" stroke="black" cx="151.5" cy="-305" rx="1.8" ry="1.8"/>
</g>
<!-- router&#45;&gt;controller -->
<g id="edge4" class="edge">
<title>router&#45;&gt;controller</title>
<path fill="none" stroke="#104e8b" d="M151.5,-342.35C151.5,-338.69 151.5,-327.71 151.5,-318.77"/>
<polygon fill="#104e8b" stroke="#104e8b" points="155,-318.81 151.5,-308.81 148,-318.81 155,-318.81"/>
</g>
<!-- view -->
<g id="node9" class="node">
<title>view</title>
<polygon fill="none" stroke="black" points="158.5,-264.2 144.5,-264.2 144.5,-262.98 143.28,-262.98 143.28,-261.76 144.5,-261.76 144.5,-255.64 143.28,-255.64 143.28,-254.42 144.5,-254.42 144.5,-253.2 158.5,-253.2 158.5,-264.2"/>
<polyline fill="none" stroke="black" points="144.5,-262.98 145.72,-262.98 145.72,-261.76 144.5,-261.76"/>
<polyline fill="none" stroke="black" points="144.5,-255.64 145.72,-255.64 145.72,-254.42 144.5,-254.42"/>
</g>
<!-- controller&#45;&gt;view -->
<g id="edge5" class="edge">
<title>controller&#45;&gt;view</title>
<path fill="none" stroke="#104e8b" d="M151.5,-302.9C151.5,-299.15 151.5,-286.46 151.5,-275.8"/>
<polygon fill="#104e8b" stroke="#104e8b" points="155,-276.05 151.5,-266.05 148,-276.05 155,-276.05"/>
</g>
<!-- user_model -->
<g id="node6" class="node">
<title>user_model</title>
<ellipse fill="black" stroke="black" cx="158.5" cy="-157.4" rx="1.8" ry="1.8"/>
</g>
<!-- user_api -->
<g id="node13" class="node">
<title>user_api</title>
<ellipse fill="black" stroke="black" cx="158.5" cy="-98.8" rx="1.8" ry="1.8"/>
</g>
<!-- user_model&#45;&gt;user_api -->
<g id="edge9" class="edge">
<title>user_model&#45;&gt;user_api</title>
<path fill="none" stroke="#6e8b3d" d="M158.5,-155.42C158.5,-150.2 158.5,-125.45 158.5,-110.78"/>
<polygon fill="#6e8b3d" stroke="#6e8b3d" points="158.5,-101 163,-111 158.5,-106 158.5,-111 158.5,-111 158.5,-111 158.5,-106 154,-111 158.5,-101 158.5,-101"/>
</g>
<!-- catalog_model -->
<g id="node7" class="node">
<title>catalog_model</title>
<ellipse fill="black" stroke="black" cx="136.5" cy="-157.4" rx="1.8" ry="1.8"/>
</g>
<!-- catalog_api -->
<g id="node14" class="node">
<title>catalog_api</title>
<ellipse fill="black" stroke="black" cx="136.5" cy="-98.8" rx="1.8" ry="1.8"/>
</g>
<!-- catalog_model&#45;&gt;catalog_api -->
<g id="edge10" class="edge">
<title>catalog_model&#45;&gt;catalog_api</title>
<path fill="none" stroke="#6e8b3d" d="M136.5,-155.42C136.5,-150.2 136.5,-125.45 136.5,-110.78"/>
<polygon fill="#6e8b3d" stroke="#6e8b3d" points="136.5,-101 141,-111 136.5,-106 136.5,-111 136.5,-111 136.5,-111 136.5,-106 132,-111 136.5,-101 136.5,-101"/>
</g>
<!-- inventory_model -->
<g id="node8" class="node">
<title>inventory_model</title>
<ellipse fill="black" stroke="black" cx="114.5" cy="-157.4" rx="1.8" ry="1.8"/>
</g>
<!-- inventory_api -->
<g id="node15" class="node">
<title>inventory_api</title>
<ellipse fill="black" stroke="black" cx="114.5" cy="-98.8" rx="1.8" ry="1.8"/>
</g>
<!-- inventory_model&#45;&gt;inventory_api -->
<g id="edge11" class="edge">
<title>inventory_model&#45;&gt;inventory_api</title>
<path fill="none" stroke="#6e8b3d" d="M114.5,-155.42C114.5,-150.2 114.5,-125.45 114.5,-110.78"/>
<polygon fill="#6e8b3d" stroke="#6e8b3d" points="114.5,-101 119,-111 114.5,-106 114.5,-111 114.5,-111 114.5,-111 114.5,-106 110,-111 114.5,-101 114.5,-101"/>
</g>
<!-- header -->
<g id="node10" class="node">
<title>header</title>
<polygon fill="none" stroke="black" points="158.5,-217.2 144.5,-217.2 144.5,-215.98 143.28,-215.98 143.28,-214.76 144.5,-214.76 144.5,-208.64 143.28,-208.64 143.28,-207.42 144.5,-207.42 144.5,-206.2 158.5,-206.2 158.5,-217.2"/>
<polyline fill="none" stroke="black" points="144.5,-215.98 145.72,-215.98 145.72,-214.76 144.5,-214.76"/>
<polyline fill="none" stroke="black" points="144.5,-208.64 145.72,-208.64 145.72,-207.42 144.5,-207.42"/>
</g>
<!-- view&#45;&gt;header -->
<g id="edge15" class="edge">
<title>view&#45;&gt;header</title>
<path fill="none" stroke="#104e8b" d="M151.5,-252.88C151.5,-247.23 151.5,-237.55 151.5,-229.11"/>
<polygon fill="#104e8b" stroke="#104e8b" points="155,-229.13 151.5,-219.13 148,-229.13 155,-229.13"/>
</g>
<!-- main -->
<g id="node11" class="node">
<title>main</title>
<polygon fill="none" stroke="black" points="126.5,-217.2 112.5,-217.2 112.5,-215.98 111.28,-215.98 111.28,-214.76 112.5,-214.76 112.5,-208.64 111.28,-208.64 111.28,-207.42 112.5,-207.42 112.5,-206.2 126.5,-206.2 126.5,-217.2"/>
<polyline fill="none" stroke="black" points="112.5,-215.98 113.72,-215.98 113.72,-214.76 112.5,-214.76"/>
<polyline fill="none" stroke="black" points="112.5,-208.64 113.72,-208.64 113.72,-207.42 112.5,-207.42"/>
</g>
<!-- view&#45;&gt;main -->
<g id="edge16" class="edge">
<title>view&#45;&gt;main</title>
<path fill="none" stroke="#104e8b" d="M148.08,-252.88C143.67,-246.69 135.83,-235.67 129.48,-226.74"/>
<polygon fill="#104e8b" stroke="#104e8b" points="132.52,-224.97 123.87,-218.85 126.82,-229.03 132.52,-224.97"/>
</g>
<!-- footer -->
<g id="node12" class="node">
<title>footer</title>
<polygon fill="none" stroke="black" points="190.5,-217.2 176.5,-217.2 176.5,-215.98 175.28,-215.98 175.28,-214.76 176.5,-214.76 176.5,-208.64 175.28,-208.64 175.28,-207.42 176.5,-207.42 176.5,-206.2 190.5,-206.2 190.5,-217.2"/>
<polyline fill="none" stroke="black" points="176.5,-215.98 177.72,-215.98 177.72,-214.76 176.5,-214.76"/>
<polyline fill="none" stroke="black" points="176.5,-208.64 177.72,-208.64 177.72,-207.42 176.5,-207.42"/>
</g>
<!-- view&#45;&gt;footer -->
<g id="edge17" class="edge">
<title>view&#45;&gt;footer</title>
<path fill="none" stroke="#104e8b" d="M154.92,-252.88C159.33,-246.69 167.17,-235.67 173.52,-226.74"/>
<polygon fill="#104e8b" stroke="#104e8b" points="176.18,-229.03 179.13,-218.85 170.48,-224.97 176.18,-229.03"/>
</g>
<!-- header&#45;&gt;user_model -->
<g id="edge6" class="edge">
<title>header&#45;&gt;user_model</title>
<path fill="none" stroke="#104e8b" d="M152.15,-205.87C153.21,-197.9 155.38,-181.74 156.88,-170.5"/>
<polygon fill="#104e8b" stroke="#104e8b" points="160.33,-171.14 158.18,-160.76 153.39,-170.21 160.33,-171.14"/>
</g>
<!-- main&#45;&gt;catalog_model -->
<g id="edge7" class="edge">
<title>main&#45;&gt;catalog_model</title>
<path fill="none" stroke="#104e8b" d="M121.07,-205.87C123.69,-197.81 129.04,-181.36 132.69,-170.11"/>
<polygon fill="#104e8b" stroke="#104e8b" points="135.99,-171.3 135.75,-160.7 129.33,-169.13 135.99,-171.3"/>
</g>
<!-- main&#45;&gt;inventory_model -->
<g id="edge8" class="edge">
<title>main&#45;&gt;inventory_model</title>
<path fill="none" stroke="#104e8b" d="M119.04,-205.87C118.28,-197.9 116.73,-181.74 115.66,-170.5"/>
<polygon fill="#104e8b" stroke="#104e8b" points="119.16,-170.39 114.73,-160.77 112.19,-171.06 119.16,-170.39"/>
</g>
<!-- user_db -->
<g id="node16" class="node">
<title>user_db</title>
<path fill="none" stroke="black" d="M175.5,-49C175.5,-49.55 172.36,-50 168.5,-50 164.64,-50 161.5,-49.55 161.5,-49 161.5,-49 161.5,-40 161.5,-40 161.5,-39.45 164.64,-39 168.5,-39 172.36,-39 175.5,-39.45 175.5,-40 175.5,-40 175.5,-49 175.5,-49"/>
<path fill="none" stroke="black" d="M175.5,-49C175.5,-48.45 172.36,-48 168.5,-48 164.64,-48 161.5,-48.45 161.5,-49"/>
</g>
<!-- user_api&#45;&gt;user_db -->
<g id="edge12" class="edge">
<title>user_api&#45;&gt;user_db</title>
<path fill="none" stroke="black" d="M158.67,-96.89C159.49,-92.61 163.03,-74.09 165.63,-60.5"/>
<polygon fill="black" stroke="black" points="170.92,-51.46 165.61,-60.63 164.05,-50.15 170.92,-51.46"/>
</g>
<!-- catalog_db -->
<g id="node17" class="node">
<title>catalog_db</title>
<path fill="none" stroke="black" d="M143.5,-49C143.5,-49.55 140.36,-50 136.5,-50 132.64,-50 129.5,-49.55 129.5,-49 129.5,-49 129.5,-40 129.5,-40 129.5,-39.45 132.64,-39 136.5,-39 140.36,-39 143.5,-39.45 143.5,-40 143.5,-40 143.5,-49 143.5,-49"/>
<path fill="none" stroke="black" d="M143.5,-49C143.5,-48.45 140.36,-48 136.5,-48 132.64,-48 129.5,-48.45 129.5,-49"/>
</g>
<!-- catalog_api&#45;&gt;catalog_db -->
<g id="edge13" class="edge">
<title>catalog_api&#45;&gt;catalog_db</title>
<path fill="none" stroke="black" d="M136.5,-96.51C136.5,-91.36 136.5,-71.94 136.5,-58.61"/>
<polygon fill="black" stroke="black" points="140,-48.85 136.5,-58.85 133,-48.85 140,-48.85"/>
</g>
<!-- inventory_db -->
<g id="node18" class="node">
<title>inventory_db</title>
<path fill="none" stroke="black" d="M111.5,-49C111.5,-49.55 108.36,-50 104.5,-50 100.64,-50 97.5,-49.55 97.5,-49 97.5,-49 97.5,-40 97.5,-40 97.5,-39.45 100.64,-39 104.5,-39 108.36,-39 111.5,-39.45 111.5,-40 111.5,-40 111.5,-49 111.5,-49"/>
<path fill="none" stroke="black" d="M111.5,-49C111.5,-48.45 108.36,-48 104.5,-48 100.64,-48 97.5,-48.45 97.5,-49"/>
</g>
<!-- inventory_api&#45;&gt;inventory_db -->
<g id="edge14" class="edge">
<title>inventory_api&#45;&gt;inventory_db</title>
<path fill="none" stroke="black" d="M114.33,-96.89C113.51,-92.61 109.97,-74.09 107.37,-60.5"/>
<polygon fill="black" stroke="black" points="108.95,-50.15 107.39,-60.63 102.08,-51.46 108.95,-50.15"/>
</g>
</g>
</svg>
