<?xml version="1.0" encoding="UTF-8" standalone="no"?>
<!DOCTYPE svg PUBLIC "-//W3C//DTD SVG 1.1//EN"
 "http://www.w3.org/Graphics/SVG/1.1/DTD/svg11.dtd">
<!-- Generated by graphviz version 7.0.1 (20221109.1506)
 -->
<!-- Title: Server_Side_Web_Applications Pages: 1 -->
<svg width="195pt" height="506pt"
 viewBox="0.00 0.00 195.00 505.80" xmlns="http://www.w3.org/2000/svg" xmlns:xlink="http://www.w3.org/1999/xlink">
<g id="page0,1_graph0" class="graph" transform="scale(1 1) rotate(0) translate(4 501.8)">
<title>Server_Side_Web_Applications</title>
<polygon fill="white" stroke="none" points="-4,4 -4,-501.8 191,-501.8 191,4 -4,4"/>
<text text-anchor="middle" x="93.5" y="-7.8" font-family="Times,serif" font-size="14.00">Server Side Web Applications</text>
<g id="clust1" class="cluster">
<title>cluster_browser</title>
<polygon fill="none" stroke="black" points="8,-334.8 8,-489.8 168,-489.8 168,-334.8 8,-334.8"/>
<text text-anchor="middle" x="88" y="-474.6" font-family="Times,serif" font-size="14.00">Browser</text>
</g>
<g id="clust2" class="cluster">
<title>cluster_web_server</title>
<polygon fill="none" stroke="black" points="69,-89 69,-326.8 179,-326.8 179,-89 69,-89"/>
<text text-anchor="middle" x="124" y="-311.6" font-family="Times,serif" font-size="14.00">Web Server</text>
</g>
<g id="clust3" class="cluster">
<title>cluster_models</title>
<polygon fill="none" stroke="black" stroke-dasharray="1,5" points="77,-97 77,-139.6 141,-139.6 141,-97 77,-97"/>
<text text-anchor="middle" x="109" y="-124.4" font-family="Times,serif" font-size="14.00">Models</text>
</g>
<g id="clust4" class="cluster">
<title>cluster_views</title>
<polygon fill="none" stroke="black" stroke-dasharray="1,5" points="77,-147.6 77,-244.6 171,-244.6 171,-147.6 77,-147.6"/>
<text text-anchor="middle" x="124" y="-229.4" font-family="Times,serif" font-size="14.00">Views</text>
</g>
<g id="clust5" class="cluster">
<title>cluster_db</title>
<polygon fill="none" stroke="black" points="62,-31 62,-81 156,-81 156,-31 62,-31"/>
<text text-anchor="middle" x="109" y="-65.8" font-family="Times,serif" font-size="14.00">Database</text>
</g>
<!-- render -->
<g id="node1" class="node">
<title>render</title>
<polygon fill="none" stroke="black" points="123.77,-429.34 123.77,-444.26 102.82,-454.8 73.18,-454.8 52.23,-444.26 52.23,-429.34 73.18,-418.8 102.82,-418.8 123.77,-429.34"/>
<polygon fill="none" stroke="black" points="127.76,-426.88 127.76,-446.72 103.76,-458.8 72.24,-458.8 48.24,-446.72 48.24,-426.88 72.24,-414.8 103.76,-414.8 127.76,-426.88"/>
<text text-anchor="middle" x="88" y="-433.1" font-family="Times,serif" font-size="14.00">render</text>
</g>
<!-- css_request -->
<g id="node2" class="node">
<title>css_request</title>
<ellipse fill="none" stroke="black" cx="43" cy="-360.8" rx="27" ry="18"/>
<text text-anchor="middle" x="43" y="-357.1" font-family="Times,serif" font-size="14.00">CSS</text>
</g>
<!-- render&#45;&gt;css_request -->
<g id="edge2" class="edge">
<title>render&#45;&gt;css_request</title>
<path fill="none" stroke="#104e8b" d="M74.98,-414.4C69.91,-406.05 64.05,-396.41 58.74,-387.68"/>
<polygon fill="#104e8b" stroke="#104e8b" points="61.81,-386 53.63,-379.28 55.83,-389.64 61.81,-386"/>
</g>
<!-- html_request -->
<g id="node3" class="node">
<title>html_request</title>
<ellipse fill="none" stroke="black" cx="124" cy="-360.8" rx="36.29" ry="18"/>
<text text-anchor="middle" x="124" y="-357.1" font-family="Times,serif" font-size="14.00">HTML</text>
</g>
<!-- render&#45;&gt;html_request -->
<g id="edge1" class="edge">
<title>render&#45;&gt;html_request</title>
<path fill="none" stroke="#104e8b" d="M98.41,-414.4C102.33,-406.35 106.82,-397.11 110.95,-388.63"/>
<polygon fill="#104e8b" stroke="#104e8b" points="114.01,-390.34 115.23,-379.82 107.71,-387.28 114.01,-390.34"/>
</g>
<!-- router -->
<g id="node4" class="node">
<title>router</title>
<ellipse fill="black" stroke="black" cx="124" cy="-294" rx="1.8" ry="1.8"/>
</g>
<!-- html_request&#45;&gt;router -->
<g id="edge3" class="edge">
<title>html_request&#45;&gt;router</title>
<path fill="none" stroke="#104e8b" d="M124,-342.43C124,-331.41 124,-317.41 124,-307.48"/>
<polygon fill="#104e8b" stroke="#104e8b" points="127.5,-307.76 124,-297.76 120.5,-307.76 127.5,-307.76"/>
</g>
<!-- controller -->
<g id="node5" class="node">
<title>controller</title>
<ellipse fill="black" stroke="black" cx="124" cy="-254.4" rx="1.8" ry="1.8"/>
</g>
<!-- router&#45;&gt;controller -->
<g id="edge4" class="edge">
<title>router&#45;&gt;controller</title>
<path fill="none" stroke="#104e8b" d="M124,-291.75C124,-288.09 124,-277.11 124,-268.17"/>
<polygon fill="#104e8b" stroke="#104e8b" points="127.5,-268.21 124,-258.21 120.5,-268.21 127.5,-268.21"/>
</g>
<!-- view -->
<g id="node9" class="node">
<title>view</title>
<polygon fill="none" stroke="black" points="131,-213.6 117,-213.6 117,-212.38 115.78,-212.38 115.78,-211.16 117,-211.16 117,-205.04 115.78,-205.04 115.78,-203.82 117,-203.82 117,-202.6 131,-202.6 131,-213.6"/>
<polyline fill="none" stroke="black" points="117,-212.38 118.22,-212.38 118.22,-211.16 117,-211.16"/>
<polyline fill="none" stroke="black" points="117,-205.04 118.22,-205.04 118.22,-203.82 117,-203.82"/>
</g>
<!-- controller&#45;&gt;view -->
<g id="edge5" class="edge">
<title>controller&#45;&gt;view</title>
<path fill="none" stroke="#104e8b" d="M124,-252.3C124,-248.55 124,-235.86 124,-225.2"/>
<polygon fill="#104e8b" stroke="#104e8b" points="127.5,-225.45 124,-215.45 120.5,-225.45 127.5,-225.45"/>
</g>
<!-- user_model -->
<g id="node6" class="node">
<title>user_model</title>
<ellipse fill="black" stroke="black" cx="131" cy="-106.8" rx="1.8" ry="1.8"/>
</g>
<!-- user_db -->
<g id="node13" class="node">
<title>user_db</title>
<path fill="none" stroke="black" d="M148,-49C148,-49.55 144.86,-50 141,-50 137.14,-50 134,-49.55 134,-49 134,-49 134,-40 134,-40 134,-39.45 137.14,-39 141,-39 144.86,-39 148,-39.45 148,-40 148,-40 148,-49 148,-49"/>
<path fill="none" stroke="black" d="M148,-49C148,-48.45 144.86,-48 141,-48 137.14,-48 134,-48.45 134,-49"/>
</g>
<!-- user_model&#45;&gt;user_db -->
<g id="edge9" class="edge">
<title>user_model&#45;&gt;user_db</title>
<path fill="none" stroke="black" d="M131.17,-104.75C132.03,-99.57 135.9,-76.26 138.52,-60.47"/>
<polygon fill="black" stroke="black" points="143.58,-51.35 138.49,-60.64 136.67,-50.2 143.58,-51.35"/>
</g>
<!-- catalog_model -->
<g id="node7" class="node">
<title>catalog_model</title>
<ellipse fill="black" stroke="black" cx="109" cy="-106.8" rx="1.8" ry="1.8"/>
</g>
<!-- catalog_db -->
<g id="node14" class="node">
<title>catalog_db</title>
<path fill="none" stroke="black" d="M116,-49C116,-49.55 112.86,-50 109,-50 105.14,-50 102,-49.55 102,-49 102,-49 102,-40 102,-40 102,-39.45 105.14,-39 109,-39 112.86,-39 116,-39.45 116,-40 116,-40 116,-49 116,-49"/>
<path fill="none" stroke="black" d="M116,-49C116,-48.45 112.86,-48 109,-48 105.14,-48 102,-48.45 102,-49"/>
</g>
<!-- catalog_model&#45;&gt;catalog_db -->
<g id="edge10" class="edge">
<title>catalog_model&#45;&gt;catalog_db</title>
<path fill="none" stroke="black" d="M109,-104.75C109,-99.38 109,-74.51 109,-58.75"/>
<polygon fill="black" stroke="black" points="112.5,-48.78 109,-58.78 105.5,-48.78 112.5,-48.78"/>
</g>
<!-- inventory_model -->
<g id="node8" class="node">
<title>inventory_model</title>
<ellipse fill="black" stroke="black" cx="87" cy="-106.8" rx="1.8" ry="1.8"/>
</g>
<!-- inventory_db -->
<g id="node15" class="node">
<title>inventory_db</title>
<path fill="none" stroke="black" d="M84,-49C84,-49.55 80.86,-50 77,-50 73.14,-50 70,-49.55 70,-49 70,-49 70,-40 70,-40 70,-39.45 73.14,-39 77,-39 80.86,-39 84,-39.45 84,-40 84,-40 84,-49 84,-49"/>
<path fill="none" stroke="black" d="M84,-49C84,-48.45 80.86,-48 77,-48 73.14,-48 70,-48.45 70,-49"/>
</g>
<!-- inventory_model&#45;&gt;inventory_db -->
<g id="edge11" class="edge">
<title>inventory_model&#45;&gt;inventory_db</title>
<path fill="none" stroke="black" d="M86.83,-104.75C85.97,-99.57 82.1,-76.26 79.48,-60.47"/>
<polygon fill="black" stroke="black" points="81.33,-50.2 79.51,-60.64 74.42,-51.35 81.33,-50.2"/>
</g>
<!-- header -->
<g id="node10" class="node">
<title>header</title>
<polygon fill="none" stroke="black" points="131,-166.6 117,-166.6 117,-165.38 115.78,-165.38 115.78,-164.16 117,-164.16 117,-158.04 115.78,-158.04 115.78,-156.82 117,-156.82 117,-155.6 131,-155.6 131,-166.6"/>
<polyline fill="none" stroke="black" points="117,-165.38 118.22,-165.38 118.22,-164.16 117,-164.16"/>
<polyline fill="none" stroke="black" points="117,-158.04 118.22,-158.04 118.22,-156.82 117,-156.82"/>
</g>
<!-- view&#45;&gt;header -->
<g id="edge12" class="edge">
<title>view&#45;&gt;header</title>
<path fill="none" stroke="#104e8b" d="M124,-202.28C124,-196.63 124,-186.95 124,-178.51"/>
<polygon fill="#104e8b" stroke="#104e8b" points="127.5,-178.53 124,-168.53 120.5,-178.53 127.5,-178.53"/>
</g>
<!-- main -->
<g id="node11" class="node">
<title>main</title>
<polygon fill="none" stroke="black" points="99,-166.6 85,-166.6 85,-165.38 83.78,-165.38 83.78,-164.16 85,-164.16 85,-158.04 83.78,-158.04 83.78,-156.82 85,-156.82 85,-155.6 99,-155.6 99,-166.6"/>
<polyline fill="none" stroke="black" points="85,-165.38 86.22,-165.38 86.22,-164.16 85,-164.16"/>
<polyline fill="none" stroke="black" points="85,-158.04 86.22,-158.04 86.22,-156.82 85,-156.82"/>
</g>
<!-- view&#45;&gt;main -->
<g id="edge13" class="edge">
<title>view&#45;&gt;main</title>
<path fill="none" stroke="#104e8b" d="M120.58,-202.28C116.17,-196.09 108.33,-185.07 101.98,-176.14"/>
<polygon fill="#104e8b" stroke="#104e8b" points="105.02,-174.37 96.37,-168.25 99.32,-178.43 105.02,-174.37"/>
</g>
<!-- footer -->
<g id="node12" class="node">
<title>footer</title>
<polygon fill="none" stroke="black" points="163,-166.6 149,-166.6 149,-165.38 147.78,-165.38 147.78,-164.16 149,-164.16 149,-158.04 147.78,-158.04 147.78,-156.82 149,-156.82 149,-155.6 163,-155.6 163,-166.6"/>
<polyline fill="none" stroke="black" points="149,-165.38 150.22,-165.38 150.22,-164.16 149,-164.16"/>
<polyline fill="none" stroke="black" points="149,-158.04 150.22,-158.04 150.22,-156.82 149,-156.82"/>
</g>
<!-- view&#45;&gt;footer -->
<g id="edge14" class="edge">
<title>view&#45;&gt;footer</title>
<path fill="none" stroke="#104e8b" d="M127.42,-202.28C131.83,-196.09 139.67,-185.07 146.02,-176.14"/>
<polygon fill="#104e8b" stroke="#104e8b" points="148.68,-178.43 151.63,-168.25 142.98,-174.37 148.68,-178.43"/>
</g>
<!-- header&#45;&gt;user_model -->
<g id="edge6" class="edge">
<title>header&#45;&gt;user_model</title>
<path fill="none" stroke="#104e8b" d="M124.65,-155.27C125.71,-147.3 127.88,-131.14 129.38,-119.9"/>
<polygon fill="#104e8b" stroke="#104e8b" points="132.83,-120.54 130.68,-110.16 125.89,-119.61 132.83,-120.54"/>
</g>
<!-- main&#45;&gt;catalog_model -->
<g id="edge7" class="edge">
<title>main&#45;&gt;catalog_model</title>
<path fill="none" stroke="#104e8b" d="M93.57,-155.27C96.19,-147.21 101.54,-130.76 105.19,-119.51"/>
<polygon fill="#104e8b" stroke="#104e8b" points="108.49,-120.7 108.25,-110.1 101.83,-118.53 108.49,-120.7"/>
</g>
<!-- main&#45;&gt;inventory_model -->
<g id="edge8" class="edge">
<title>main&#45;&gt;inventory_model</title>
<path fill="none" stroke="#104e8b" d="M91.54,-155.27C90.78,-147.3 89.23,-131.14 88.16,-119.9"/>
<polygon fill="#104e8b" stroke="#104e8b" points="91.66,-119.79 87.23,-110.17 84.69,-120.46 91.66,-119.79"/>
</g>
</g>
</svg>
