<?xml version="1.0" encoding="UTF-8" standalone="no"?>
<!DOCTYPE svg PUBLIC "-//W3C//DTD SVG 1.1//EN"
 "http://www.w3.org/Graphics/SVG/1.1/DTD/svg11.dtd">
<!-- Generated by graphviz version 7.0.5 (20221223.1930)
 -->
<!-- Title: Single_Page_Web_Applications Pages: 1 -->
<svg width="300pt" height="532pt"
 viewBox="0.00 0.00 300.00 531.54" xmlns="http://www.w3.org/2000/svg" xmlns:xlink="http://www.w3.org/1999/xlink">
<g id="page0,1_graph0" class="graph" transform="scale(1 1) rotate(0) translate(4 527.54)">
<title>Single_Page_Web_Applications</title>
<polygon fill="white" stroke="none" points="-4,4 -4,-527.54 296,-527.54 296,4 -4,4"/>
<text text-anchor="middle" x="146" y="-7.8" font-family="Times,serif" font-size="14.00">Single Page Web Applications (SPA)</text>
<g id="clust1" class="cluster">
<title>cluster_browser</title>
<polygon fill="none" stroke="black" points="8,-139.6 8,-515.54 284,-515.54 284,-139.6 8,-139.6"/>
<text text-anchor="middle" x="146" y="-500.34" font-family="Times,serif" font-size="14.00">Browser</text>
</g>
<g id="clust2" class="cluster">
<title>cluster_main</title>
<polygon fill="none" stroke="black" points="104,-147.6 104,-410.47 214,-410.47 214,-147.6 104,-147.6"/>
<text text-anchor="middle" x="159" y="-395.27" font-family="Times,serif" font-size="14.00">JS Main Thread</text>
</g>
<g id="clust3" class="cluster">
<title>cluster_models</title>
<polygon fill="none" stroke="black" stroke-dasharray="1,5" points="112,-155.6 112,-198.2 176,-198.2 176,-155.6 112,-155.6"/>
<text text-anchor="middle" x="144" y="-183" font-family="Times,serif" font-size="14.00">Models</text>
</g>
<g id="clust4" class="cluster">
<title>cluster_views</title>
<polygon fill="none" stroke="black" stroke-dasharray="1,5" points="112,-206.2 112,-303.2 206,-303.2 206,-206.2 112,-206.2"/>
<text text-anchor="middle" x="159" y="-288" font-family="Times,serif" font-size="14.00">Views</text>
</g>
<g id="clust5" class="cluster">
<title>cluster_api</title>
<polygon fill="none" stroke="black" points="112,-89 112,-131.6 176,-131.6 176,-89 112,-89"/>
<text text-anchor="middle" x="144" y="-116.4" font-family="Times,serif" font-size="14.00">API</text>
</g>
<g id="clust6" class="cluster">
<title>cluster_db</title>
<polygon fill="none" stroke="black" points="97,-31 97,-81 191,-81 191,-31 97,-31"/>
<text text-anchor="middle" x="144" y="-65.8" font-family="Times,serif" font-size="14.00">Database</text>
</g>
<!-- render -->
<g id="node1" class="node">
<title>render</title>
<polygon fill="none" stroke="black" points="194.77,-455.08 194.77,-470 173.82,-480.54 144.18,-480.54 123.23,-470 123.23,-455.08 144.18,-444.54 173.82,-444.54 194.77,-455.08"/>
<polygon fill="none" stroke="black" points="198.76,-452.62 198.76,-472.46 174.76,-484.54 143.24,-484.54 119.24,-472.46 119.24,-452.62 143.24,-440.54 174.76,-440.54 198.76,-452.62"/>
<text text-anchor="middle" x="159" y="-458.84" font-family="Times,serif" font-size="14.00">render</text>
</g>
<!-- html_request -->
<g id="node2" class="node">
<title>html_request</title>
<ellipse fill="none" stroke="black" stroke-dasharray="1,5" cx="56" cy="-377.67" rx="39.7" ry="26.74"/>
<text text-anchor="middle" x="56" y="-381.47" font-family="Times,serif" font-size="14.00">HTML</text>
<text text-anchor="middle" x="56" y="-366.47" font-family="Times,serif" font-size="14.00">stub</text>
</g>
<!-- render&#45;&gt;html_request -->
<g id="edge1" class="edge">
<title>render&#45;&gt;html_request</title>
<path fill="none" stroke="grey" stroke-dasharray="1,5" d="M136.65,-443.56C120.2,-430.32 97.84,-412.33 80.83,-398.65"/>
</g>
<!-- router -->
<g id="node3" class="node">
<title>router</title>
<ellipse fill="black" stroke="black" cx="159" cy="-377.67" rx="1.8" ry="1.8"/>
</g>
<!-- render&#45;&gt;router -->
<g id="edge3" class="edge">
<title>render&#45;&gt;router</title>
<path fill="none" stroke="#104e8b" d="M159,-440.2C159,-424.65 159,-404.13 159,-391.16"/>
<polygon fill="#104e8b" stroke="#104e8b" points="162.5,-391.45 159,-381.45 155.5,-391.45 162.5,-391.45"/>
</g>
<!-- css_request -->
<g id="node12" class="node">
<title>css_request</title>
<ellipse fill="none" stroke="black" stroke-dasharray="1,5" cx="249" cy="-377.67" rx="27" ry="18"/>
<text text-anchor="middle" x="249" y="-373.97" font-family="Times,serif" font-size="14.00">CSS</text>
</g>
<!-- render&#45;&gt;css_request -->
<g id="edge2" class="edge">
<title>render&#45;&gt;css_request</title>
<path fill="none" stroke="grey" stroke-dasharray="1,5" d="M180.97,-443.29C192.24,-433.74 206.07,-421.71 218,-410.47 223.72,-405.08 229.81,-398.93 235.06,-393.49"/>
</g>
<!-- controller -->
<g id="node4" class="node">
<title>controller</title>
<ellipse fill="black" stroke="black" cx="159" cy="-313" rx="1.8" ry="1.8"/>
</g>
<!-- router&#45;&gt;controller -->
<g id="edge4" class="edge">
<title>router&#45;&gt;controller</title>
<path fill="none" stroke="#104e8b" d="M159,-375.58C159,-369.83 159,-342.59 159,-326.33"/>
<polygon fill="#104e8b" stroke="#104e8b" points="162.5,-326.44 159,-316.44 155.5,-326.44 162.5,-326.44"/>
</g>
<!-- view -->
<g id="node8" class="node">
<title>view</title>
<polygon fill="none" stroke="black" points="166,-272.2 152,-272.2 152,-270.98 150.78,-270.98 150.78,-269.76 152,-269.76 152,-263.64 150.78,-263.64 150.78,-262.42 152,-262.42 152,-261.2 166,-261.2 166,-272.2"/>
<polyline fill="none" stroke="black" points="152,-270.98 153.22,-270.98 153.22,-269.76 152,-269.76"/>
<polyline fill="none" stroke="black" points="152,-263.64 153.22,-263.64 153.22,-262.42 152,-262.42"/>
</g>
<!-- controller&#45;&gt;view -->
<g id="edge5" class="edge">
<title>controller&#45;&gt;view</title>
<path fill="none" stroke="#104e8b" d="M159,-310.9C159,-307.15 159,-294.46 159,-283.8"/>
<polygon fill="#104e8b" stroke="#104e8b" points="162.5,-284.05 159,-274.05 155.5,-284.05 162.5,-284.05"/>
</g>
<!-- user_model -->
<g id="node5" class="node">
<title>user_model</title>
<ellipse fill="black" stroke="black" cx="166" cy="-165.4" rx="1.8" ry="1.8"/>
</g>
<!-- user_api -->
<g id="node13" class="node">
<title>user_api</title>
<ellipse fill="black" stroke="black" cx="166" cy="-98.8" rx="1.8" ry="1.8"/>
</g>
<!-- user_model&#45;&gt;user_api -->
<g id="edge9" class="edge">
<title>user_model&#45;&gt;user_api</title>
<path fill="none" stroke="#6e8b3d" d="M166,-163.28C166,-157.13 166,-127.2 166,-110.72"/>
<polygon fill="#6e8b3d" stroke="#6e8b3d" points="166,-100.76 170.5,-110.76 166,-105.76 166,-110.76 166,-110.76 166,-110.76 166,-105.76 161.5,-110.76 166,-100.76 166,-100.76"/>
</g>
<!-- catalog_model -->
<g id="node6" class="node">
<title>catalog_model</title>
<ellipse fill="black" stroke="black" cx="144" cy="-165.4" rx="1.8" ry="1.8"/>
</g>
<!-- catalog_api -->
<g id="node14" class="node">
<title>catalog_api</title>
<ellipse fill="black" stroke="black" cx="144" cy="-98.8" rx="1.8" ry="1.8"/>
</g>
<!-- catalog_model&#45;&gt;catalog_api -->
<g id="edge10" class="edge">
<title>catalog_model&#45;&gt;catalog_api</title>
<path fill="none" stroke="#6e8b3d" d="M144,-163.28C144,-157.13 144,-127.2 144,-110.72"/>
<polygon fill="#6e8b3d" stroke="#6e8b3d" points="144,-100.76 148.5,-110.76 144,-105.76 144,-110.76 144,-110.76 144,-110.76 144,-105.76 139.5,-110.76 144,-100.76 144,-100.76"/>
</g>
<!-- inventory_model -->
<g id="node7" class="node">
<title>inventory_model</title>
<ellipse fill="black" stroke="black" cx="122" cy="-165.4" rx="1.8" ry="1.8"/>
</g>
<!-- inventory_api -->
<g id="node15" class="node">
<title>inventory_api</title>
<ellipse fill="black" stroke="black" cx="122" cy="-98.8" rx="1.8" ry="1.8"/>
</g>
<!-- inventory_model&#45;&gt;inventory_api -->
<g id="edge11" class="edge">
<title>inventory_model&#45;&gt;inventory_api</title>
<path fill="none" stroke="#6e8b3d" d="M122,-163.28C122,-157.13 122,-127.2 122,-110.72"/>
<polygon fill="#6e8b3d" stroke="#6e8b3d" points="122,-100.76 126.5,-110.76 122,-105.76 122,-110.76 122,-110.76 122,-110.76 122,-105.76 117.5,-110.76 122,-100.76 122,-100.76"/>
</g>
<!-- header -->
<g id="node9" class="node">
<title>header</title>
<polygon fill="none" stroke="black" points="166,-225.2 152,-225.2 152,-223.98 150.78,-223.98 150.78,-222.76 152,-222.76 152,-216.64 150.78,-216.64 150.78,-215.42 152,-215.42 152,-214.2 166,-214.2 166,-225.2"/>
<polyline fill="none" stroke="black" points="152,-223.98 153.22,-223.98 153.22,-222.76 152,-222.76"/>
<polyline fill="none" stroke="black" points="152,-216.64 153.22,-216.64 153.22,-215.42 152,-215.42"/>
</g>
<!-- view&#45;&gt;header -->
<g id="edge15" class="edge">
<title>view&#45;&gt;header</title>
<path fill="none" stroke="#104e8b" d="M159,-260.88C159,-255.23 159,-245.55 159,-237.11"/>
<polygon fill="#104e8b" stroke="#104e8b" points="162.5,-237.13 159,-227.13 155.5,-237.13 162.5,-237.13"/>
</g>
<!-- main -->
<g id="node10" class="node">
<title>main</title>
<polygon fill="none" stroke="black" points="134,-225.2 120,-225.2 120,-223.98 118.78,-223.98 118.78,-222.76 120,-222.76 120,-216.64 118.78,-216.64 118.78,-215.42 120,-215.42 120,-214.2 134,-214.2 134,-225.2"/>
<polyline fill="none" stroke="black" points="120,-223.98 121.22,-223.98 121.22,-222.76 120,-222.76"/>
<polyline fill="none" stroke="black" points="120,-216.64 121.22,-216.64 121.22,-215.42 120,-215.42"/>
</g>
<!-- view&#45;&gt;main -->
<g id="edge16" class="edge">
<title>view&#45;&gt;main</title>
<path fill="none" stroke="#104e8b" d="M155.58,-260.88C151.17,-254.69 143.33,-243.67 136.98,-234.74"/>
<polygon fill="#104e8b" stroke="#104e8b" points="140.02,-232.97 131.37,-226.85 134.32,-237.03 140.02,-232.97"/>
</g>
<!-- footer -->
<g id="node11" class="node">
<title>footer</title>
<polygon fill="none" stroke="black" points="198,-225.2 184,-225.2 184,-223.98 182.78,-223.98 182.78,-222.76 184,-222.76 184,-216.64 182.78,-216.64 182.78,-215.42 184,-215.42 184,-214.2 198,-214.2 198,-225.2"/>
<polyline fill="none" stroke="black" points="184,-223.98 185.22,-223.98 185.22,-222.76 184,-222.76"/>
<polyline fill="none" stroke="black" points="184,-216.64 185.22,-216.64 185.22,-215.42 184,-215.42"/>
</g>
<!-- view&#45;&gt;footer -->
<g id="edge17" class="edge">
<title>view&#45;&gt;footer</title>
<path fill="none" stroke="#104e8b" d="M162.42,-260.88C166.83,-254.69 174.67,-243.67 181.02,-234.74"/>
<polygon fill="#104e8b" stroke="#104e8b" points="183.68,-237.03 186.63,-226.85 177.98,-232.97 183.68,-237.03"/>
</g>
<!-- header&#45;&gt;user_model -->
<g id="edge6" class="edge">
<title>header&#45;&gt;user_model</title>
<path fill="none" stroke="#104e8b" d="M159.65,-213.87C160.71,-205.9 162.88,-189.74 164.38,-178.5"/>
<polygon fill="#104e8b" stroke="#104e8b" points="167.83,-179.14 165.68,-168.76 160.89,-178.21 167.83,-179.14"/>
</g>
<!-- main&#45;&gt;catalog_model -->
<g id="edge7" class="edge">
<title>main&#45;&gt;catalog_model</title>
<path fill="none" stroke="#104e8b" d="M128.57,-213.87C131.19,-205.81 136.54,-189.36 140.19,-178.11"/>
<polygon fill="#104e8b" stroke="#104e8b" points="143.49,-179.3 143.25,-168.7 136.83,-177.13 143.49,-179.3"/>
</g>
<!-- main&#45;&gt;inventory_model -->
<g id="edge8" class="edge">
<title>main&#45;&gt;inventory_model</title>
<path fill="none" stroke="#104e8b" d="M126.54,-213.87C125.78,-205.9 124.23,-189.74 123.16,-178.5"/>
<polygon fill="#104e8b" stroke="#104e8b" points="126.66,-178.39 122.23,-168.77 119.69,-179.06 126.66,-178.39"/>
</g>
<!-- user_db -->
<g id="node16" class="node">
<title>user_db</title>
<path fill="none" stroke="black" d="M183,-49C183,-49.55 179.86,-50 176,-50 172.14,-50 169,-49.55 169,-49 169,-49 169,-40 169,-40 169,-39.45 172.14,-39 176,-39 179.86,-39 183,-39.45 183,-40 183,-40 183,-49 183,-49"/>
<path fill="none" stroke="black" d="M183,-49C183,-48.45 179.86,-48 176,-48 172.14,-48 169,-48.45 169,-49"/>
</g>
<!-- user_api&#45;&gt;user_db -->
<g id="edge12" class="edge">
<title>user_api&#45;&gt;user_db</title>
<path fill="none" stroke="black" d="M166.17,-96.89C166.99,-92.61 170.53,-74.09 173.13,-60.5"/>
<polygon fill="black" stroke="black" points="178.42,-51.46 173.11,-60.63 171.55,-50.15 178.42,-51.46"/>
</g>
<!-- catalog_db -->
<g id="node17" class="node">
<title>catalog_db</title>
<path fill="none" stroke="black" d="M151,-49C151,-49.55 147.86,-50 144,-50 140.14,-50 137,-49.55 137,-49 137,-49 137,-40 137,-40 137,-39.45 140.14,-39 144,-39 147.86,-39 151,-39.45 151,-40 151,-40 151,-49 151,-49"/>
<path fill="none" stroke="black" d="M151,-49C151,-48.45 147.86,-48 144,-48 140.14,-48 137,-48.45 137,-49"/>
</g>
<!-- catalog_api&#45;&gt;catalog_db -->
<g id="edge13" class="edge">
<title>catalog_api&#45;&gt;catalog_db</title>
<path fill="none" stroke="black" d="M144,-96.51C144,-91.36 144,-71.94 144,-58.61"/>
<polygon fill="black" stroke="black" points="147.5,-48.85 144,-58.85 140.5,-48.85 147.5,-48.85"/>
</g>
<!-- inventory_db -->
<g id="node18" class="node">
<title>inventory_db</title>
<path fill="none" stroke="black" d="M119,-49C119,-49.55 115.86,-50 112,-50 108.14,-50 105,-49.55 105,-49 105,-49 105,-40 105,-40 105,-39.45 108.14,-39 112,-39 115.86,-39 119,-39.45 119,-40 119,-40 119,-49 119,-49"/>
<path fill="none" stroke="black" d="M119,-49C119,-48.45 115.86,-48 112,-48 108.14,-48 105,-48.45 105,-49"/>
</g>
<!-- inventory_api&#45;&gt;inventory_db -->
<g id="edge14" class="edge">
<title>inventory_api&#45;&gt;inventory_db</title>
<path fill="none" stroke="black" d="M121.83,-96.89C121.01,-92.61 117.47,-74.09 114.87,-60.5"/>
<polygon fill="black" stroke="black" points="116.45,-50.15 114.89,-60.63 109.58,-51.46 116.45,-50.15"/>
</g>
</g>
</svg>
