<?xml version="1.0" encoding="UTF-8" standalone="no"?>
<!DOCTYPE svg PUBLIC "-//W3C//DTD SVG 1.1//EN"
 "http://www.w3.org/Graphics/SVG/1.1/DTD/svg11.dtd">
<!-- Generated by graphviz version 7.0.1 (20221109.1506)
 -->
<!-- Title: SPA_with_SSR Pages: 1 -->
<svg width="410pt" height="578pt"
 viewBox="0.00 0.00 410.00 578.40" xmlns="http://www.w3.org/2000/svg" xmlns:xlink="http://www.w3.org/1999/xlink">
<g id="page0,1_graph0" class="graph" transform="scale(1 1) rotate(0) translate(4 574.4)">
<title>SPA_with_SSR</title>
<polygon fill="white" stroke="none" points="-4,4 -4,-574.4 406,-574.4 406,4 -4,4"/>
<text text-anchor="middle" x="201" y="-7.8" font-family="Times,serif" font-size="14.00">Single Page Application (SPA) with Server&#45;Side Rendering (SSR)</text>
<g id="clust5" class="cluster">
<title>cluster_web_server</title>
<polygon fill="none" stroke="black" points="284,-139.6 284,-407.4 394,-407.4 394,-139.6 284,-139.6"/>
<text text-anchor="middle" x="339" y="-392.2" font-family="Times,serif" font-size="14.00">Web Server</text>
</g>
<g id="clust6" class="cluster">
<title>cluster_models</title>
<polygon fill="none" stroke="black" stroke-dasharray="1,5" points="292,-147.6 292,-190.2 356,-190.2 356,-147.6 292,-147.6"/>
<text text-anchor="middle" x="324" y="-175" font-family="Times,serif" font-size="14.00">Models</text>
</g>
<g id="clust7" class="cluster">
<title>cluster_views</title>
<polygon fill="none" stroke="black" stroke-dasharray="1,5" points="292,-210.5 292,-314.8 386,-314.8 386,-210.5 292,-210.5"/>
<text text-anchor="middle" x="339" y="-299.6" font-family="Times,serif" font-size="14.00">Views</text>
</g>
<g id="clust1" class="cluster">
<title>cluster_browser</title>
<polygon fill="none" stroke="black" points="8,-198.2 8,-562.4 276,-562.4 276,-198.2 8,-198.2"/>
<text text-anchor="middle" x="142" y="-547.2" font-family="Times,serif" font-size="14.00">Browser</text>
</g>
<g id="clust2" class="cluster">
<title>cluster_main</title>
<polygon fill="none" stroke="black" points="78,-206.2 78,-466.2 188,-466.2 188,-206.2 78,-206.2"/>
<text text-anchor="middle" x="133" y="-451" font-family="Times,serif" font-size="14.00">JS Main Thread</text>
</g>
<g id="clust3" class="cluster">
<title>cluster_models</title>
<polygon fill="none" stroke="black" stroke-dasharray="1,5" points="113,-214.2 113,-256.8 177,-256.8 177,-214.2 113,-214.2"/>
<text text-anchor="middle" x="145" y="-241.6" font-family="Times,serif" font-size="14.00">Models</text>
</g>
<g id="clust4" class="cluster">
<title>cluster_views</title>
<polygon fill="none" stroke="black" stroke-dasharray="1,5" points="86,-264.8 86,-364.8 180,-364.8 180,-264.8 86,-264.8"/>
<text text-anchor="middle" x="133" y="-349.6" font-family="Times,serif" font-size="14.00">Views</text>
</g>
<g id="clust9" class="cluster">
<title>cluster_db</title>
<polygon fill="none" stroke="black" points="233,-31 233,-81 327,-81 327,-31 233,-31"/>
<text text-anchor="middle" x="280" y="-65.8" font-family="Times,serif" font-size="14.00">Database</text>
</g>
<g id="clust8" class="cluster">
<title>cluster_api</title>
<polygon fill="none" stroke="black" points="248,-89 248,-131.6 312,-131.6 312,-89 248,-89"/>
<text text-anchor="middle" x="280" y="-116.4" font-family="Times,serif" font-size="14.00">API</text>
</g>
<!-- render -->
<g id="node1" class="node">
<title>render</title>
<polygon fill="none" stroke="black" points="168.77,-501.94 168.77,-516.86 147.82,-527.4 118.18,-527.4 97.23,-516.86 97.23,-501.94 118.18,-491.4 147.82,-491.4 168.77,-501.94"/>
<polygon fill="none" stroke="black" points="172.76,-499.48 172.76,-519.32 148.76,-531.4 117.24,-531.4 93.24,-519.32 93.24,-499.48 117.24,-487.4 148.76,-487.4 172.76,-499.48"/>
<text text-anchor="middle" x="133" y="-505.7" font-family="Times,serif" font-size="14.00">render</text>
</g>
<!-- css_request -->
<g id="node2" class="node">
<title>css_request</title>
<ellipse fill="none" stroke="black" stroke-dasharray="1,5" cx="43" cy="-433.4" rx="27" ry="18"/>
<text text-anchor="middle" x="43" y="-429.7" font-family="Times,serif" font-size="14.00">CSS</text>
</g>
<!-- render&#45;&gt;css_request -->
<g id="edge2" class="edge">
<title>render&#45;&gt;css_request</title>
<path fill="none" stroke="gray" stroke-dasharray="1,5" d="M107.86,-491.89C97.11,-484.45 84.61,-475.31 74,-466.2 67.92,-460.98 61.66,-454.75 56.37,-449.19"/>
</g>
<!-- html_request -->
<g id="node3" class="node">
<title>html_request</title>
<ellipse fill="none" stroke="black" cx="232" cy="-433.4" rx="36.29" ry="18"/>
<text text-anchor="middle" x="232" y="-429.7" font-family="Times,serif" font-size="14.00">HTML</text>
</g>
<!-- render&#45;&gt;html_request -->
<g id="edge1" class="edge">
<title>render&#45;&gt;html_request</title>
<path fill="none" stroke="#104e8b" d="M157.31,-491.43C168.04,-483.83 180.74,-474.69 192,-466.2 196.29,-462.96 200.79,-459.48 205.16,-456.05"/>
<polygon fill="#104e8b" stroke="#104e8b" points="206.99,-459.06 212.65,-450.1 202.64,-453.58 206.99,-459.06"/>
</g>
<!-- router_js -->
<g id="node4" class="node">
<title>router_js</title>
<ellipse fill="black" stroke="black" cx="133" cy="-433.4" rx="1.8" ry="1.8"/>
</g>
<!-- render&#45;&gt;router_js -->
<g id="edge3" class="edge">
<title>render&#45;&gt;router_js</title>
<path fill="none" stroke="#104e8b" d="M133,-487C133,-473.84 133,-457.47 133,-446.52"/>
<polygon fill="#104e8b" stroke="#104e8b" points="136.5,-446.69 133,-436.69 129.5,-446.69 136.5,-446.69"/>
</g>
<!-- router -->
<g id="node13" class="node">
<title>router</title>
<ellipse fill="black" stroke="black" cx="294" cy="-374.6" rx="1.8" ry="1.8"/>
</g>
<!-- html_request&#45;&gt;router -->
<g id="edge4" class="edge">
<title>html_request&#45;&gt;router</title>
<path fill="none" stroke="#104e8b" d="M248.61,-417.18C260.32,-406.46 275.53,-392.52 285.03,-383.81"/>
<polygon fill="#104e8b" stroke="#104e8b" points="287.19,-386.58 292.2,-377.25 282.46,-381.42 287.19,-386.58"/>
</g>
<!-- controller_js -->
<g id="node5" class="node">
<title>controller_js</title>
<ellipse fill="black" stroke="black" cx="133" cy="-374.6" rx="1.8" ry="1.8"/>
</g>
<!-- router_js&#45;&gt;controller_js -->
<g id="edge13" class="edge">
<title>router_js&#45;&gt;controller_js</title>
<path fill="none" stroke="#104e8b" d="M133,-431.41C133,-426.34 133,-402.84 133,-388"/>
<polygon fill="#104e8b" stroke="#104e8b" points="136.5,-388.31 133,-378.31 129.5,-388.31 136.5,-388.31"/>
</g>
<!-- view_js -->
<g id="node9" class="node">
<title>view_js</title>
<polygon fill="none" stroke="black" points="140,-333.8 126,-333.8 126,-332.58 124.78,-332.58 124.78,-331.36 126,-331.36 126,-325.24 124.78,-325.24 124.78,-324.02 126,-324.02 126,-322.8 140,-322.8 140,-333.8"/>
<polyline fill="none" stroke="black" points="126,-332.58 127.22,-332.58 127.22,-331.36 126,-331.36"/>
<polyline fill="none" stroke="black" points="126,-325.24 127.22,-325.24 127.22,-324.02 126,-324.02"/>
</g>
<!-- controller_js&#45;&gt;view_js -->
<g id="edge14" class="edge">
<title>controller_js&#45;&gt;view_js</title>
<path fill="none" stroke="#104e8b" d="M133,-372.5C133,-368.75 133,-356.06 133,-345.4"/>
<polygon fill="#104e8b" stroke="#104e8b" points="136.5,-345.65 133,-335.65 129.5,-345.65 136.5,-345.65"/>
</g>
<!-- user_model_js -->
<g id="node6" class="node">
<title>user_model_js</title>
<ellipse fill="black" stroke="black" cx="167" cy="-224" rx="1.8" ry="1.8"/>
</g>
<!-- user_api -->
<g id="node22" class="node">
<title>user_api</title>
<ellipse fill="black" stroke="black" cx="302" cy="-98.8" rx="1.8" ry="1.8"/>
</g>
<!-- user_model_js&#45;&gt;user_api -->
<g id="edge21" class="edge">
<title>user_model_js&#45;&gt;user_api</title>
<path fill="none" stroke="#6e8b3d" d="M168.51,-222.38C180.17,-217.5 256.14,-184.22 291,-131.6 295.21,-125.24 297.99,-117.09 299.7,-110.63"/>
<polygon fill="#6e8b3d" stroke="#6e8b3d" points="301.83,-100.87 304.1,-111.6 300.76,-105.76 299.7,-110.64 299.7,-110.64 299.7,-110.64 300.76,-105.76 295.3,-109.69 301.83,-100.87 301.83,-100.87"/>
</g>
<!-- catalog_model_js -->
<g id="node7" class="node">
<title>catalog_model_js</title>
<ellipse fill="black" stroke="black" cx="145" cy="-224" rx="1.8" ry="1.8"/>
</g>
<!-- catalog_api -->
<g id="node23" class="node">
<title>catalog_api</title>
<ellipse fill="black" stroke="black" cx="280" cy="-98.8" rx="1.8" ry="1.8"/>
</g>
<!-- catalog_model_js&#45;&gt;catalog_api -->
<g id="edge22" class="edge">
<title>catalog_model_js&#45;&gt;catalog_api</title>
<path fill="none" stroke="#6e8b3d" d="M145.21,-221.92C146,-218.18 149.07,-205.65 156,-198.2 161.15,-192.67 164.82,-194.54 171,-190.2 198.45,-170.92 196.97,-154.54 227,-139.6 244.01,-131.14 254.63,-144.03 269,-131.6 275,-126.41 277.73,-117.78 278.97,-110.82"/>
<polygon fill="#6e8b3d" stroke="#6e8b3d" points="279.99,-101.01 283.43,-111.42 279.47,-105.98 278.96,-110.96 278.96,-110.96 278.96,-110.96 279.47,-105.98 274.48,-110.49 279.99,-101.01 279.99,-101.01"/>
</g>
<!-- inventory_model_js -->
<g id="node8" class="node">
<title>inventory_model_js</title>
<ellipse fill="black" stroke="black" cx="123" cy="-224" rx="1.8" ry="1.8"/>
</g>
<!-- inventory_api -->
<g id="node24" class="node">
<title>inventory_api</title>
<ellipse fill="black" stroke="black" cx="258" cy="-98.8" rx="1.8" ry="1.8"/>
</g>
<!-- inventory_model_js&#45;&gt;inventory_api -->
<g id="edge23" class="edge">
<title>inventory_model_js&#45;&gt;inventory_api</title>
<path fill="none" stroke="#6e8b3d" d="M123.29,-222.03C125.57,-214.53 141.32,-165.55 171,-139.6 194.12,-119.39 229.22,-107.61 246.94,-102.63"/>
<polygon fill="#6e8b3d" stroke="#6e8b3d" points="256.61,-100.12 248.07,-106.99 251.78,-101.37 246.94,-102.63 246.94,-102.63 246.94,-102.63 251.78,-101.37 245.8,-98.28 256.61,-100.12 256.61,-100.12"/>
</g>
<!-- header_js -->
<g id="node10" class="node">
<title>header_js</title>
<polygon fill="none" stroke="black" points="172,-283.8 158,-283.8 158,-282.58 156.78,-282.58 156.78,-281.36 158,-281.36 158,-275.24 156.78,-275.24 156.78,-274.02 158,-274.02 158,-272.8 172,-272.8 172,-283.8"/>
<polyline fill="none" stroke="black" points="158,-282.58 159.22,-282.58 159.22,-281.36 158,-281.36"/>
<polyline fill="none" stroke="black" points="158,-275.24 159.22,-275.24 159.22,-274.02 158,-274.02"/>
</g>
<!-- view_js&#45;&gt;header_js -->
<g id="edge18" class="edge">
<title>view_js&#45;&gt;header_js</title>
<path fill="none" stroke="#104e8b" d="M140.18,-322.83C143.2,-320.69 146.56,-317.91 149,-314.8 153.58,-308.97 157.17,-301.62 159.78,-295.12"/>
<polygon fill="#104e8b" stroke="#104e8b" points="163.07,-296.32 163.09,-285.73 156.47,-293.99 163.07,-296.32"/>
</g>
<!-- main_js -->
<g id="node11" class="node">
<title>main_js</title>
<polygon fill="none" stroke="black" points="108,-283.8 94,-283.8 94,-282.58 92.78,-282.58 92.78,-281.36 94,-281.36 94,-275.24 92.78,-275.24 92.78,-274.02 94,-274.02 94,-272.8 108,-272.8 108,-283.8"/>
<polyline fill="none" stroke="black" points="94,-282.58 95.22,-282.58 95.22,-281.36 94,-281.36"/>
<polyline fill="none" stroke="black" points="94,-275.24 95.22,-275.24 95.22,-274.02 94,-274.02"/>
</g>
<!-- view_js&#45;&gt;main_js -->
<g id="edge19" class="edge">
<title>view_js&#45;&gt;main_js</title>
<path fill="none" stroke="#104e8b" d="M125.82,-322.83C122.8,-320.69 119.44,-317.91 117,-314.8 112.42,-308.97 108.83,-301.62 106.22,-295.12"/>
<polygon fill="#104e8b" stroke="#104e8b" points="109.53,-293.99 102.91,-285.73 102.93,-296.32 109.53,-293.99"/>
</g>
<!-- footer_js -->
<g id="node12" class="node">
<title>footer_js</title>
<polygon fill="none" stroke="black" points="140,-283.8 126,-283.8 126,-282.58 124.78,-282.58 124.78,-281.36 126,-281.36 126,-275.24 124.78,-275.24 124.78,-274.02 126,-274.02 126,-272.8 140,-272.8 140,-283.8"/>
<polyline fill="none" stroke="black" points="126,-282.58 127.22,-282.58 127.22,-281.36 126,-281.36"/>
<polyline fill="none" stroke="black" points="126,-275.24 127.22,-275.24 127.22,-274.02 126,-274.02"/>
</g>
<!-- view_js&#45;&gt;footer_js -->
<g id="edge20" class="edge">
<title>view_js&#45;&gt;footer_js</title>
<path fill="none" stroke="#104e8b" d="M133,-322.52C133,-316.27 133,-304.99 133,-295.52"/>
<polygon fill="#104e8b" stroke="#104e8b" points="136.5,-295.57 133,-285.57 129.5,-295.57 136.5,-295.57"/>
</g>
<!-- header_js&#45;&gt;user_model_js -->
<g id="edge15" class="edge">
<title>header_js&#45;&gt;user_model_js</title>
<path fill="none" stroke="#104e8b" d="M165.18,-272.47C165.49,-264.5 166.11,-248.34 166.54,-237.1"/>
<polygon fill="#104e8b" stroke="#104e8b" points="170.02,-237.5 166.91,-227.38 163.03,-237.24 170.02,-237.5"/>
</g>
<!-- main_js&#45;&gt;catalog_model_js -->
<g id="edge16" class="edge">
<title>main_js&#45;&gt;catalog_model_js</title>
<path fill="none" stroke="#104e8b" d="M106.7,-272.34C109.66,-269.9 113.4,-267.02 117,-264.8 124.11,-260.42 128.42,-263.01 134,-256.8 138.83,-251.42 141.56,-243.81 143.09,-237.39"/>
<polygon fill="#104e8b" stroke="#104e8b" points="146.53,-238.07 144.68,-227.64 139.62,-236.95 146.53,-238.07"/>
</g>
<!-- main_js&#45;&gt;inventory_model_js -->
<g id="edge17" class="edge">
<title>main_js&#45;&gt;inventory_model_js</title>
<path fill="none" stroke="#104e8b" d="M103.03,-272.47C106.46,-264.32 113.5,-247.59 118.23,-236.33"/>
<polygon fill="#104e8b" stroke="#104e8b" points="121.4,-237.83 122.05,-227.26 114.95,-235.12 121.4,-237.83"/>
</g>
<!-- controller -->
<g id="node14" class="node">
<title>controller</title>
<ellipse fill="black" stroke="black" cx="300" cy="-328.3" rx="1.8" ry="1.8"/>
</g>
<!-- router&#45;&gt;controller -->
<g id="edge5" class="edge">
<title>router&#45;&gt;controller</title>
<path fill="none" stroke="#104e8b" d="M294.15,-372.5C294.72,-368.25 296.85,-352.53 298.38,-341.28"/>
<polygon fill="#104e8b" stroke="#104e8b" points="301.8,-342.08 299.67,-331.7 294.86,-341.14 301.8,-342.08"/>
</g>
<!-- view -->
<g id="node18" class="node">
<title>view</title>
<polygon fill="none" stroke="black" points="330,-283.8 316,-283.8 316,-282.58 314.78,-282.58 314.78,-281.36 316,-281.36 316,-275.24 314.78,-275.24 314.78,-274.02 316,-274.02 316,-272.8 330,-272.8 330,-283.8"/>
<polyline fill="none" stroke="black" points="316,-282.58 317.22,-282.58 317.22,-281.36 316,-281.36"/>
<polyline fill="none" stroke="black" points="316,-275.24 317.22,-275.24 317.22,-274.02 316,-274.02"/>
</g>
<!-- controller&#45;&gt;view -->
<g id="edge6" class="edge">
<title>controller&#45;&gt;view</title>
<path fill="none" stroke="#104e8b" d="M300.57,-326.11C302.64,-321.78 309.99,-306.45 315.71,-294.5"/>
<polygon fill="#104e8b" stroke="#104e8b" points="318.83,-296.11 319.99,-285.58 312.52,-293.08 318.83,-296.11"/>
</g>
<!-- user_model -->
<g id="node15" class="node">
<title>user_model</title>
<ellipse fill="black" stroke="black" cx="346" cy="-157.4" rx="1.8" ry="1.8"/>
</g>
<!-- user_model&#45;&gt;user_api -->
<g id="edge10" class="edge">
<title>user_model&#45;&gt;user_api</title>
<path fill="none" stroke="#6e8b3d" d="M345.44,-155.46C343.88,-152.88 339.31,-145.43 335,-139.6 326.7,-128.35 316.28,-116.06 309.4,-108.16"/>
<polygon fill="#6e8b3d" stroke="#6e8b3d" points="302.86,-100.75 312.85,-105.27 306.17,-104.5 309.48,-108.25 309.48,-108.25 309.48,-108.25 306.17,-104.5 306.11,-111.23 302.86,-100.75 302.86,-100.75"/>
</g>
<!-- catalog_model -->
<g id="node16" class="node">
<title>catalog_model</title>
<ellipse fill="black" stroke="black" cx="324" cy="-157.4" rx="1.8" ry="1.8"/>
</g>
<!-- catalog_model&#45;&gt;catalog_api -->
<g id="edge11" class="edge">
<title>catalog_model&#45;&gt;catalog_api</title>
<path fill="none" stroke="#6e8b3d" d="M323.58,-155.32C322.39,-152.38 318.68,-144.1 313,-139.6 304.84,-133.14 298.3,-139.01 291,-131.6 285.51,-126.02 282.75,-117.56 281.37,-110.77"/>
<polygon fill="#6e8b3d" stroke="#6e8b3d" points="280.06,-100.97 285.84,-110.28 280.72,-105.92 281.38,-110.88 281.38,-110.88 281.38,-110.88 280.72,-105.92 276.92,-111.48 280.06,-100.97 280.06,-100.97"/>
</g>
<!-- inventory_model -->
<g id="node17" class="node">
<title>inventory_model</title>
<ellipse fill="black" stroke="black" cx="302" cy="-157.4" rx="1.8" ry="1.8"/>
</g>
<!-- inventory_model&#45;&gt;inventory_api -->
<g id="edge12" class="edge">
<title>inventory_model&#45;&gt;inventory_api</title>
<path fill="none" stroke="#6e8b3d" d="M300.5,-155.69C295.34,-153.17 278.12,-144.11 269,-131.6 264.45,-125.35 261.66,-117.06 260.03,-110.52"/>
<polygon fill="#6e8b3d" stroke="#6e8b3d" points="258.14,-100.89 264.49,-109.84 259.11,-105.8 260.07,-110.71 260.07,-110.71 260.07,-110.71 259.11,-105.8 255.65,-111.57 258.14,-100.89 258.14,-100.89"/>
</g>
<!-- header -->
<g id="node19" class="node">
<title>header</title>
<polygon fill="none" stroke="black" points="346,-229.5 332,-229.5 332,-228.28 330.78,-228.28 330.78,-227.06 332,-227.06 332,-220.94 330.78,-220.94 330.78,-219.72 332,-219.72 332,-218.5 346,-218.5 346,-229.5"/>
<polyline fill="none" stroke="black" points="332,-228.28 333.22,-228.28 333.22,-227.06 332,-227.06"/>
<polyline fill="none" stroke="black" points="332,-220.94 333.22,-220.94 333.22,-219.72 332,-219.72"/>
</g>
<!-- view&#45;&gt;header -->
<g id="edge27" class="edge">
<title>view&#45;&gt;header</title>
<path fill="none" stroke="#104e8b" d="M324.48,-272.47C326.66,-265.35 330.84,-251.69 334.15,-240.84"/>
<polygon fill="#104e8b" stroke="#104e8b" points="337.46,-242 337.04,-231.41 330.77,-239.95 337.46,-242"/>
</g>
<!-- main -->
<g id="node20" class="node">
<title>main</title>
<polygon fill="none" stroke="black" points="314,-229.5 300,-229.5 300,-228.28 298.78,-228.28 298.78,-227.06 300,-227.06 300,-220.94 298.78,-220.94 298.78,-219.72 300,-219.72 300,-218.5 314,-218.5 314,-229.5"/>
<polyline fill="none" stroke="black" points="300,-228.28 301.22,-228.28 301.22,-227.06 300,-227.06"/>
<polyline fill="none" stroke="black" points="300,-220.94 301.22,-220.94 301.22,-219.72 300,-219.72"/>
</g>
<!-- view&#45;&gt;main -->
<g id="edge28" class="edge">
<title>view&#45;&gt;main</title>
<path fill="none" stroke="#104e8b" d="M321.52,-272.47C319.34,-265.35 315.16,-251.69 311.85,-240.84"/>
<polygon fill="#104e8b" stroke="#104e8b" points="315.23,-239.95 308.96,-231.41 308.54,-242 315.23,-239.95"/>
</g>
<!-- footer -->
<g id="node21" class="node">
<title>footer</title>
<polygon fill="none" stroke="black" points="378,-229.5 364,-229.5 364,-228.28 362.78,-228.28 362.78,-227.06 364,-227.06 364,-220.94 362.78,-220.94 362.78,-219.72 364,-219.72 364,-218.5 378,-218.5 378,-229.5"/>
<polyline fill="none" stroke="black" points="364,-228.28 365.22,-228.28 365.22,-227.06 364,-227.06"/>
<polyline fill="none" stroke="black" points="364,-220.94 365.22,-220.94 365.22,-219.72 364,-219.72"/>
</g>
<!-- view&#45;&gt;footer -->
<g id="edge29" class="edge">
<title>view&#45;&gt;footer</title>
<path fill="none" stroke="#104e8b" d="M330.41,-273.99C337.47,-270.54 348.02,-264.54 355,-256.8 359.31,-252.02 362.76,-245.88 365.33,-240.26"/>
<polygon fill="#104e8b" stroke="#104e8b" points="368.59,-241.55 369.02,-230.97 362.08,-238.97 368.59,-241.55"/>
</g>
<!-- header&#45;&gt;user_model -->
<g id="edge7" class="edge">
<title>header&#45;&gt;user_model</title>
<path fill="none" stroke="#104e8b" d="M339.5,-218.35C340.57,-208.5 343.1,-185.2 344.66,-170.73"/>
<polygon fill="#104e8b" stroke="#104e8b" points="348.12,-171.35 345.71,-161.03 341.16,-170.6 348.12,-171.35"/>
</g>
<!-- main&#45;&gt;catalog_model -->
<g id="edge8" class="edge">
<title>main&#45;&gt;catalog_model</title>
<path fill="none" stroke="#104e8b" d="M308.22,-218.35C310.84,-208.39 317.08,-184.71 320.88,-170.27"/>
<polygon fill="#104e8b" stroke="#104e8b" points="324.16,-171.55 323.32,-160.99 317.39,-169.77 324.16,-171.55"/>
</g>
<!-- main&#45;&gt;inventory_model -->
<g id="edge9" class="edge">
<title>main&#45;&gt;inventory_model</title>
<path fill="none" stroke="#104e8b" d="M306.64,-218.35C305.88,-208.5 304.07,-185.2 302.95,-170.73"/>
<polygon fill="#104e8b" stroke="#104e8b" points="306.47,-170.74 302.2,-161.04 299.49,-171.28 306.47,-170.74"/>
</g>
<!-- user_db -->
<g id="node25" class="node">
<title>user_db</title>
<path fill="none" stroke="black" d="M319,-49C319,-49.55 315.86,-50 312,-50 308.14,-50 305,-49.55 305,-49 305,-49 305,-40 305,-40 305,-39.45 308.14,-39 312,-39 315.86,-39 319,-39.45 319,-40 319,-40 319,-49 319,-49"/>
<path fill="none" stroke="black" d="M319,-49C319,-48.45 315.86,-48 312,-48 308.14,-48 305,-48.45 305,-49"/>
</g>
<!-- user_api&#45;&gt;user_db -->
<g id="edge24" class="edge">
<title>user_api&#45;&gt;user_db</title>
<path fill="none" stroke="black" d="M302.17,-96.89C302.99,-92.61 306.53,-74.09 309.13,-60.5"/>
<polygon fill="black" stroke="black" points="314.42,-51.46 309.11,-60.63 307.55,-50.15 314.42,-51.46"/>
</g>
<!-- catalog_db -->
<g id="node26" class="node">
<title>catalog_db</title>
<path fill="none" stroke="black" d="M287,-49C287,-49.55 283.86,-50 280,-50 276.14,-50 273,-49.55 273,-49 273,-49 273,-40 273,-40 273,-39.45 276.14,-39 280,-39 283.86,-39 287,-39.45 287,-40 287,-40 287,-49 287,-49"/>
<path fill="none" stroke="black" d="M287,-49C287,-48.45 283.86,-48 280,-48 276.14,-48 273,-48.45 273,-49"/>
</g>
<!-- catalog_api&#45;&gt;catalog_db -->
<g id="edge25" class="edge">
<title>catalog_api&#45;&gt;catalog_db</title>
<path fill="none" stroke="black" d="M280,-96.51C280,-91.36 280,-71.94 280,-58.61"/>
<polygon fill="black" stroke="black" points="283.5,-48.85 280,-58.85 276.5,-48.85 283.5,-48.85"/>
</g>
<!-- inventory_db -->
<g id="node27" class="node">
<title>inventory_db</title>
<path fill="none" stroke="black" d="M255,-49C255,-49.55 251.86,-50 248,-50 244.14,-50 241,-49.55 241,-49 241,-49 241,-40 241,-40 241,-39.45 244.14,-39 248,-39 251.86,-39 255,-39.45 255,-40 255,-40 255,-49 255,-49"/>
<path fill="none" stroke="black" d="M255,-49C255,-48.45 251.86,-48 248,-48 244.14,-48 241,-48.45 241,-49"/>
</g>
<!-- inventory_api&#45;&gt;inventory_db -->
<g id="edge26" class="edge">
<title>inventory_api&#45;&gt;inventory_db</title>
<path fill="none" stroke="black" d="M257.83,-96.89C257.01,-92.61 253.47,-74.09 250.87,-60.5"/>
<polygon fill="black" stroke="black" points="252.45,-50.15 250.89,-60.63 245.58,-51.46 252.45,-50.15"/>
</g>
</g>
</svg>
