<?xml version="1.0" encoding="UTF-8" standalone="no"?>
<!DOCTYPE svg PUBLIC "-//W3C//DTD SVG 1.1//EN"
 "http://www.w3.org/Graphics/SVG/1.1/DTD/svg11.dtd">
<!-- Generated by graphviz version 7.0.1 (20221109.1506)
 -->
<!-- Title: Statig_Generators Pages: 1 -->
<svg width="322pt" height="577pt"
 viewBox="0.00 0.00 322.00 577.10" xmlns="http://www.w3.org/2000/svg" xmlns:xlink="http://www.w3.org/1999/xlink">
<g id="page0,1_graph0" class="graph" transform="scale(1 1) rotate(0) translate(4 573.1)">
<title>Statig_Generators</title>
<polygon fill="white" stroke="none" points="-4,4 -4,-573.1 318,-573.1 318,4 -4,4"/>
<text text-anchor="middle" x="157" y="-7.8" font-family="Times,serif" font-size="14.00">Static Generators</text>
<g id="clust1" class="cluster">
<title>cluster_browser</title>
<polygon fill="none" stroke="black" points="8,-405.1 8,-561.1 168,-561.1 168,-405.1 8,-405.1"/>
<text text-anchor="middle" x="88" y="-545.9" font-family="Times,serif" font-size="14.00">Browser</text>
</g>
<g id="clust2" class="cluster">
<title>cluster_edge_route</title>
<polygon fill="none" stroke="black" points="77,-215.6 77,-386.1 183,-386.1 183,-215.6 77,-215.6"/>
<text text-anchor="middle" x="130" y="-370.9" font-family="Times,serif" font-size="14.00">Edge</text>
</g>
<g id="clust3" class="cluster">
<title>cluster_static_generator</title>
<polygon fill="none" stroke="black" points="196,-98 196,-369.9 306,-369.9 306,-98 196,-98"/>
<text text-anchor="middle" x="251" y="-354.7" font-family="Times,serif" font-size="14.00">Static Generator</text>
</g>
<g id="clust4" class="cluster">
<title>cluster_models</title>
<polygon fill="none" stroke="black" stroke-dasharray="1,5" points="209,-106 209,-148.6 273,-148.6 273,-106 209,-106"/>
<text text-anchor="middle" x="241" y="-133.4" font-family="Times,serif" font-size="14.00">Models</text>
</g>
<g id="clust5" class="cluster">
<title>cluster_views</title>
<polygon fill="none" stroke="black" stroke-dasharray="1,5" points="204,-167.6 204,-278.1 298,-278.1 298,-167.6 204,-167.6"/>
<text text-anchor="middle" x="251" y="-262.9" font-family="Times,serif" font-size="14.00">Views</text>
</g>
<g id="clust6" class="cluster">
<title>cluster_db</title>
<polygon fill="none" stroke="black" points="194,-31 194,-81 288,-81 288,-31 194,-31"/>
<text text-anchor="middle" x="241" y="-65.8" font-family="Times,serif" font-size="14.00">Database</text>
</g>
<!-- render -->
<g id="node1" class="node">
<title>render</title>
<polygon fill="none" stroke="black" points="123.77,-500.64 123.77,-515.56 102.82,-526.1 73.18,-526.1 52.23,-515.56 52.23,-500.64 73.18,-490.1 102.82,-490.1 123.77,-500.64"/>
<polygon fill="none" stroke="black" points="127.76,-498.18 127.76,-518.02 103.76,-530.1 72.24,-530.1 48.24,-518.02 48.24,-498.18 72.24,-486.1 103.76,-486.1 127.76,-498.18"/>
<text text-anchor="middle" x="88" y="-504.4" font-family="Times,serif" font-size="14.00">render</text>
</g>
<!-- css_request -->
<g id="node2" class="node">
<title>css_request</title>
<ellipse fill="none" stroke="black" stroke-dasharray="1,5" cx="43" cy="-431.1" rx="27" ry="18"/>
<text text-anchor="middle" x="43" y="-427.4" font-family="Times,serif" font-size="14.00">CSS</text>
</g>
<!-- render&#45;&gt;css_request -->
<g id="edge2" class="edge">
<title>render&#45;&gt;css_request</title>
<path fill="none" stroke="gray" stroke-dasharray="1,5" d="M75.23,-485.81C70.01,-477.12 63.94,-467 58.48,-457.9"/>
<polygon fill="gray" stroke="gray" points="61.58,-456.27 53.44,-449.49 55.58,-459.87 61.58,-456.27"/>
</g>
<!-- html_request -->
<g id="node3" class="node">
<title>html_request</title>
<ellipse fill="none" stroke="black" cx="124" cy="-431.1" rx="36.29" ry="18"/>
<text text-anchor="middle" x="124" y="-427.4" font-family="Times,serif" font-size="14.00">HTML</text>
</g>
<!-- render&#45;&gt;html_request -->
<g id="edge1" class="edge">
<title>render&#45;&gt;html_request</title>
<path fill="none" stroke="#104e8b" d="M98.22,-485.81C102.24,-477.43 106.9,-467.72 111.14,-458.88"/>
<polygon fill="#104e8b" stroke="#104e8b" points="114.22,-460.57 115.39,-450.04 107.91,-457.54 114.22,-460.57"/>
</g>
<!-- router -->
<g id="node4" class="node">
<title>router</title>
<ellipse fill="none" stroke="black" cx="124" cy="-337.1" rx="34.39" ry="18"/>
<text text-anchor="middle" x="124" y="-333.4" font-family="Times,serif" font-size="14.00">Router</text>
</g>
<!-- html_request&#45;&gt;router -->
<g id="edge3" class="edge">
<title>html_request&#45;&gt;router</title>
<path fill="none" stroke="#104e8b" d="M124,-412.8C124,-399.82 124,-381.76 124,-366.66"/>
<polygon fill="#104e8b" stroke="#104e8b" points="127.5,-366.84 124,-356.84 120.5,-366.84 127.5,-366.84"/>
</g>
<!-- edge_storage -->
<g id="node5" class="node">
<title>edge_storage</title>
<polygon fill="none" stroke="black" points="174.5,-259.6 89.5,-259.6 85.5,-255.6 85.5,-223.6 170.5,-223.6 174.5,-227.6 174.5,-259.6"/>
<polyline fill="none" stroke="black" points="170.5,-255.6 85.5,-255.6"/>
<polyline fill="none" stroke="black" points="170.5,-255.6 170.5,-223.6"/>
<polyline fill="none" stroke="black" points="170.5,-255.6 174.5,-259.6"/>
<text text-anchor="middle" x="130" y="-237.9" font-family="Times,serif" font-size="14.00">Edge Storage</text>
</g>
<!-- router&#45;&gt;edge_storage -->
<g id="edge4" class="edge">
<title>router&#45;&gt;edge_storage</title>
<path fill="none" stroke="#104e8b" d="M125.1,-318.95C125.96,-305.59 127.17,-286.75 128.17,-271.13"/>
<polygon fill="#104e8b" stroke="#104e8b" points="131.64,-271.67 128.79,-261.47 124.66,-271.22 131.64,-271.67"/>
</g>
<!-- build -->
<g id="node6" class="node">
<title>build</title>
<polygon fill="none" stroke="black" stroke-dasharray="5,2" points="195.48,-425.54 233,-413.1 270.52,-425.54 270.48,-445.66 195.52,-445.66 195.48,-425.54"/>
<text text-anchor="middle" x="233" y="-427.4" font-family="Times,serif" font-size="14.00">Build</text>
</g>
<!-- controller -->
<g id="node7" class="node">
<title>controller</title>
<ellipse fill="black" stroke="black" cx="233" cy="-337.1" rx="1.8" ry="1.8"/>
</g>
<!-- build&#45;&gt;controller -->
<g id="edge5" class="edge">
<title>build&#45;&gt;controller</title>
<path fill="none" stroke="#104e8b" d="M233,-412.8C233,-394.68 233,-366.68 233,-350.61"/>
<polygon fill="#104e8b" stroke="#104e8b" points="236.5,-350.82 233,-340.82 229.5,-350.82 236.5,-350.82"/>
</g>
<!-- controller&#45;&gt;edge_storage -->
<g id="edge6" class="edge">
<title>controller&#45;&gt;edge_storage</title>
<path fill="none" stroke="black" d="M231.57,-335.57C225.92,-333.48 204.58,-325.58 187,-319.1 165.23,-311.08 152.54,-319.18 138,-301.1 131.4,-292.89 128.81,-281.84 128.07,-271.56"/>
<polygon fill="none" stroke="black" points="131.57,-271.53 127.95,-261.57 124.57,-271.61 131.57,-271.53"/>
<text text-anchor="middle" x="186.5" y="-289.9" font-family="Times,serif" font-size="14.00">generate and save</text>
</g>
<!-- view -->
<g id="node11" class="node">
<title>view</title>
<polygon fill="none" stroke="black" points="258,-247.1 244,-247.1 244,-245.88 242.78,-245.88 242.78,-244.66 244,-244.66 244,-238.54 242.78,-238.54 242.78,-237.32 244,-237.32 244,-236.1 258,-236.1 258,-247.1"/>
<polyline fill="none" stroke="black" points="244,-245.88 245.22,-245.88 245.22,-244.66 244,-244.66"/>
<polyline fill="none" stroke="black" points="244,-238.54 245.22,-238.54 245.22,-237.32 244,-237.32"/>
</g>
<!-- controller&#45;&gt;view -->
<g id="edge7" class="edge">
<title>controller&#45;&gt;view</title>
<path fill="none" stroke="#104e8b" d="M233.2,-335.05C234.62,-327.67 243.19,-283.17 247.9,-258.7"/>
<polygon fill="#104e8b" stroke="#104e8b" points="251.31,-259.5 249.77,-249.01 244.44,-258.17 251.31,-259.5"/>
</g>
<!-- user_model -->
<g id="node8" class="node">
<title>user_model</title>
<ellipse fill="black" stroke="black" cx="219" cy="-115.8" rx="1.8" ry="1.8"/>
</g>
<!-- user_db -->
<g id="node15" class="node">
<title>user_db</title>
<path fill="none" stroke="black" d="M216,-49C216,-49.55 212.86,-50 209,-50 205.14,-50 202,-49.55 202,-49 202,-49 202,-40 202,-40 202,-39.45 205.14,-39 209,-39 212.86,-39 216,-39.45 216,-40 216,-40 216,-49 216,-49"/>
<path fill="none" stroke="black" d="M216,-49C216,-48.45 212.86,-48 209,-48 205.14,-48 202,-48.45 202,-49"/>
</g>
<!-- user_model&#45;&gt;user_db -->
<g id="edge11" class="edge">
<title>user_model&#45;&gt;user_db</title>
<path fill="none" stroke="black" d="M218.83,-113.6C217.93,-107.41 213.79,-78.72 211.18,-60.61"/>
<polygon fill="black" stroke="black" points="213.21,-50.16 211.17,-60.56 206.28,-51.16 213.21,-50.16"/>
</g>
<!-- catalog_model -->
<g id="node9" class="node">
<title>catalog_model</title>
<ellipse fill="black" stroke="black" cx="241" cy="-115.8" rx="1.8" ry="1.8"/>
</g>
<!-- catalog_db -->
<g id="node16" class="node">
<title>catalog_db</title>
<path fill="none" stroke="black" d="M248,-49C248,-49.55 244.86,-50 241,-50 237.14,-50 234,-49.55 234,-49 234,-49 234,-40 234,-40 234,-39.45 237.14,-39 241,-39 244.86,-39 248,-39.45 248,-40 248,-40 248,-49 248,-49"/>
<path fill="none" stroke="black" d="M248,-49C248,-48.45 244.86,-48 241,-48 237.14,-48 234,-48.45 234,-49"/>
</g>
<!-- catalog_model&#45;&gt;catalog_db -->
<g id="edge12" class="edge">
<title>catalog_model&#45;&gt;catalog_db</title>
<path fill="none" stroke="black" d="M241,-113.6C241,-107.41 241,-78.72 241,-60.61"/>
<polygon fill="black" stroke="black" points="244.5,-50.67 241,-60.67 237.5,-50.67 244.5,-50.67"/>
</g>
<!-- inventory_model -->
<g id="node10" class="node">
<title>inventory_model</title>
<ellipse fill="black" stroke="black" cx="263" cy="-115.8" rx="1.8" ry="1.8"/>
</g>
<!-- inventory_db -->
<g id="node17" class="node">
<title>inventory_db</title>
<path fill="none" stroke="black" d="M280,-49C280,-49.55 276.86,-50 273,-50 269.14,-50 266,-49.55 266,-49 266,-49 266,-40 266,-40 266,-39.45 269.14,-39 273,-39 276.86,-39 280,-39.45 280,-40 280,-40 280,-49 280,-49"/>
<path fill="none" stroke="black" d="M280,-49C280,-48.45 276.86,-48 273,-48 269.14,-48 266,-48.45 266,-49"/>
</g>
<!-- inventory_model&#45;&gt;inventory_db -->
<g id="edge13" class="edge">
<title>inventory_model&#45;&gt;inventory_db</title>
<path fill="none" stroke="black" d="M263.17,-113.6C264.07,-107.41 268.21,-78.72 270.82,-60.61"/>
<polygon fill="black" stroke="black" points="275.72,-51.16 270.83,-60.56 268.79,-50.16 275.72,-51.16"/>
</g>
<!-- header -->
<g id="node12" class="node">
<title>header</title>
<polygon fill="none" stroke="black" points="226,-186.6 212,-186.6 212,-185.38 210.78,-185.38 210.78,-184.16 212,-184.16 212,-178.04 210.78,-178.04 210.78,-176.82 212,-176.82 212,-175.6 226,-175.6 226,-186.6"/>
<polyline fill="none" stroke="black" points="212,-185.38 213.22,-185.38 213.22,-184.16 212,-184.16"/>
<polyline fill="none" stroke="black" points="212,-178.04 213.22,-178.04 213.22,-176.82 212,-176.82"/>
</g>
<!-- view&#45;&gt;header -->
<g id="edge14" class="edge">
<title>view&#45;&gt;header</title>
<path fill="none" stroke="#104e8b" d="M248.27,-235.61C243.64,-227.15 234.08,-209.67 227.14,-196.98"/>
<polygon fill="#104e8b" stroke="#104e8b" points="230.32,-195.5 222.45,-188.4 224.18,-198.86 230.32,-195.5"/>
</g>
<!-- main -->
<g id="node13" class="node">
<title>main</title>
<polygon fill="none" stroke="black" points="258,-186.6 244,-186.6 244,-185.38 242.78,-185.38 242.78,-184.16 244,-184.16 244,-178.04 242.78,-178.04 242.78,-176.82 244,-176.82 244,-175.6 258,-175.6 258,-186.6"/>
<polyline fill="none" stroke="black" points="244,-185.38 245.22,-185.38 245.22,-184.16 244,-184.16"/>
<polyline fill="none" stroke="black" points="244,-178.04 245.22,-178.04 245.22,-176.82 244,-176.82"/>
</g>
<!-- view&#45;&gt;main -->
<g id="edge15" class="edge">
<title>view&#45;&gt;main</title>
<path fill="none" stroke="#104e8b" d="M251,-235.61C251,-227.5 251,-211.08 251,-198.56"/>
<polygon fill="#104e8b" stroke="#104e8b" points="254.5,-198.59 251,-188.59 247.5,-198.59 254.5,-198.59"/>
</g>
<!-- footer -->
<g id="node14" class="node">
<title>footer</title>
<polygon fill="none" stroke="black" points="290,-186.6 276,-186.6 276,-185.38 274.78,-185.38 274.78,-184.16 276,-184.16 276,-178.04 274.78,-178.04 274.78,-176.82 276,-176.82 276,-175.6 290,-175.6 290,-186.6"/>
<polyline fill="none" stroke="black" points="276,-185.38 277.22,-185.38 277.22,-184.16 276,-184.16"/>
<polyline fill="none" stroke="black" points="276,-178.04 277.22,-178.04 277.22,-176.82 276,-176.82"/>
</g>
<!-- view&#45;&gt;footer -->
<g id="edge16" class="edge">
<title>view&#45;&gt;footer</title>
<path fill="none" stroke="#104e8b" d="M253.73,-235.61C258.36,-227.15 267.92,-209.67 274.86,-196.98"/>
<polygon fill="#104e8b" stroke="#104e8b" points="277.82,-198.86 279.55,-188.4 271.68,-195.5 277.82,-198.86"/>
</g>
<!-- header&#45;&gt;user_model -->
<g id="edge8" class="edge">
<title>header&#45;&gt;user_model</title>
<path fill="none" stroke="#104e8b" d="M219,-175.13C219,-165.31 219,-143.13 219,-129.13"/>
<polygon fill="#104e8b" stroke="#104e8b" points="222.5,-129.4 219,-119.4 215.5,-129.4 222.5,-129.4"/>
</g>
<!-- main&#45;&gt;catalog_model -->
<g id="edge9" class="edge">
<title>main&#45;&gt;catalog_model</title>
<path fill="none" stroke="#104e8b" d="M250.22,-175.13C248.66,-165.31 245.16,-143.13 242.95,-129.13"/>
<polygon fill="#104e8b" stroke="#104e8b" points="246.43,-128.71 241.41,-119.38 239.51,-129.8 246.43,-128.71"/>
</g>
<!-- main&#45;&gt;inventory_model -->
<g id="edge10" class="edge">
<title>main&#45;&gt;inventory_model</title>
<path fill="none" stroke="#104e8b" d="M251.94,-175.13C253.8,-165.31 258.01,-143.13 260.66,-129.13"/>
<polygon fill="#104e8b" stroke="#104e8b" points="264.09,-129.85 262.51,-119.37 257.21,-128.55 264.09,-129.85"/>
</g>
</g>
</svg>
